<svg width="19" height="19" viewBox="0 0 19 19" fill="none" xmlns="http://www.w3.org/2000/svg">
<path d="M18.7078 18.7078C18.3182 19.0974 17.6866 19.0974 17.297 18.7078L15.8862 17.297C15.4966 16.9073 15.4966 16.2758 15.8862 15.8862C16.2758 15.4966 16.9075 15.4966 17.297 15.8862L18.7078 17.297C19.0974 17.6865 19.0974 18.3182 18.7078 18.7078ZM2.48359 14.4754C-0.827863 11.1639 -0.827863 5.79501 2.48359 2.48358C5.79504 -0.827849 11.164 -0.827871 14.4754 2.48358C17.7868 5.79503 17.7869 11.164 14.4754 14.4754C11.164 17.7869 5.79504 17.7869 2.48359 14.4754ZM13.0646 3.89435C10.5323 1.36208 6.42665 1.36208 3.89438 3.89435C1.36209 6.42668 1.36209 10.5323 3.89438 13.0646C6.42667 15.5969 10.5323 15.5969 13.0646 13.0646C15.5969 10.5323 15.5969 6.42668 13.0646 3.89435Z" fill="#9E9E9E"/>
<path d="M11.0634 6.74914H11.9842V11.1763H11.0634V6.74914ZM11.5326 6.10721C11.391 6.10721 11.2729 6.06146 11.1785 5.96997C11.084 5.87847 11.0368 5.76337 11.0368 5.62465C11.0368 5.48888 11.084 5.37525 11.1785 5.28376C11.2729 5.18931 11.3895 5.14209 11.5282 5.14209C11.664 5.14209 11.7791 5.18931 11.8735 5.28376C11.968 5.37525 12.0152 5.48888 12.0152 5.62465C12.0152 5.76337 11.968 5.87847 11.8735 5.96997C11.782 6.06146 11.6684 6.10721 11.5326 6.10721Z" fill="#9E9E9E"/>
<path d="M7.07818 4.97827H8.15398L10.4074 11.1763H9.43342L9.00399 9.99865H6.22817L5.80317 11.1763H4.82477L7.07818 4.97827ZM6.56906 9.07781H8.6631L7.61387 6.20016L6.56906 9.07781Z" fill="#9E9E9E"/>
</svg>
