<svg width="17" height="17" viewBox="0 0 17 17" fill="none" xmlns="http://www.w3.org/2000/svg">
<path d="M16.7386 16.7385C16.39 17.0872 15.8249 17.0872 15.4763 16.7385L14.214 15.4763C13.8654 15.1276 13.8654 14.5625 14.214 14.2139C14.5626 13.8654 15.1277 13.8654 15.4763 14.2139L16.7386 15.4763C17.0871 15.8248 17.0871 16.39 16.7386 16.7385ZM2.22216 12.9517C-0.74072 9.98878 -0.74072 5.18501 2.22216 2.22215C5.18504 -0.740707 9.98882 -0.740727 12.9517 2.22215C15.9145 5.18503 15.9146 9.9888 12.9517 12.9517C9.98882 15.9146 5.18504 15.9146 2.22216 12.9517ZM11.6894 3.48441C9.42362 1.2187 5.75016 1.2187 3.48445 3.48441C1.21871 5.75019 1.21871 9.4236 3.48445 11.6894C5.75018 13.9551 9.42364 13.9551 11.6894 11.6894C13.9551 9.4236 13.9551 5.75019 11.6894 3.48441Z" fill="black"/>
<path d="M9.89877 6.03884H10.7227V9.99997H9.89877V6.03884ZM10.3186 5.46448C10.1919 5.46448 10.0863 5.42355 10.0018 5.34168C9.91725 5.25982 9.875 5.15683 9.875 5.03271C9.875 4.91124 9.91725 4.80957 10.0018 4.72771C10.0863 4.6432 10.1906 4.60095 10.3147 4.60095C10.4362 4.60095 10.5391 4.6432 10.6237 4.72771C10.7082 4.80957 10.7504 4.91124 10.7504 5.03271C10.7504 5.15683 10.7082 5.25982 10.6237 5.34168C10.5418 5.42355 10.4401 5.46448 10.3186 5.46448Z" fill="black"/>
<path d="M6.33311 4.45441H7.29566L9.31188 9.99999H8.44043L8.0562 8.94633H5.57257L5.1923 9.99999H4.31689L6.33311 4.45441ZM5.87758 8.12241H7.75119L6.81241 5.54768L5.87758 8.12241Z" fill="black"/>
</svg>
