<svg width="20" height="16" viewBox="0 0 20 16" fill="none" xmlns="http://www.w3.org/2000/svg">
<path d="M20 7.90356C20 8.34654 19.6708 8.71264 19.2437 8.77058L19.125 8.77856L1.625 8.77856C1.14175 8.77856 0.749998 8.38681 0.749998 7.90356C0.749998 7.46059 1.07918 7.09449 1.50627 7.03655L1.625 7.02856L19.125 7.02856C19.6082 7.02856 20 7.42032 20 7.90356Z" fill="#212121"/>
<path d="M9.30058 14.3121C9.64303 14.6531 9.64422 15.2071 9.30325 15.5496C8.99327 15.8609 8.50723 15.8902 8.16413 15.6367L8.06581 15.5522L1.00748 8.52422C0.695235 8.21332 0.666831 7.72552 0.922277 7.38243L1.00743 7.28417L8.06576 0.255002C8.40818 -0.0859986 8.96219 -0.0848516 9.3032 0.257564C9.6132 0.568851 9.64043 1.05502 9.38556 1.39704L9.30063 1.495L2.86526 7.90452L9.30058 14.3121Z" fill="#212121"/>
</svg>
