<svg width="16" height="18" viewBox="0 0 16 18" fill="none" xmlns="http://www.w3.org/2000/svg">
<path d="M7.74522 0.645935C4.82983 0.645935 2.469 3.00677 2.469 5.92216V7.58583C2.469 8.12455 2.24718 8.93262 1.9699 9.39211L0.963773 11.0716C0.345837 12.1094 0.773638 13.2661 1.91444 13.6464C5.70128 14.906 9.79709 14.906 13.5839 13.6464C14.6534 13.2899 15.1129 12.0381 14.5346 11.0716L13.5285 9.39211C13.2512 8.93262 13.0294 8.11662 13.0294 7.58583V5.92216C13.0214 3.02261 10.6448 0.645935 7.74522 0.645935Z" stroke="#221F1F" stroke-width="1.18834" stroke-miterlimit="10" stroke-linecap="round"/>
<path d="M10.3675 13.9711C10.3675 15.4209 9.17919 16.6092 7.72942 16.6092C7.00849 16.6092 6.34302 16.3082 5.86769 15.8329C5.39235 15.3575 5.09131 14.6921 5.09131 13.9711" stroke="#221F1F" stroke-width="1.18834" stroke-miterlimit="10"/>
</svg>
