<svg width="26" height="18" viewBox="0 0 26 18" fill="none" xmlns="http://www.w3.org/2000/svg">
<path d="M20.1506 18V14.1423H5.84945V18H0V14.1423V10.9288V7.71365L1.94847 5.14228H0.973343C0.435651 5.14228 0 4.70977 0 4.17794C0 3.64608 0.435651 3.21344 0.973343 3.21344H2.92344C3.07369 3.21344 3.21228 3.25289 3.33752 3.31152L5.84945 0H20.1506L22.6625 3.31152C22.7877 3.25302 22.9263 3.21344 23.0766 3.21344H25.0265C25.5643 3.21344 26 3.64608 26 4.17794C26 4.70977 25.5643 5.14228 25.0265 5.14228H24.0516L26 7.71365V10.9288V14.1423V18H20.1506ZM2.59896 7.71365C2.59896 8.42532 3.18158 9 3.89932 9H5.84945C6.56718 9 7.14967 8.42532 7.14967 7.71365C7.14967 7.00479 6.56718 6.42864 5.84945 6.42864H3.89932C3.18158 6.42864 2.59896 7.00479 2.59896 7.71365ZM19.2153 1.2846H6.66263L3.73666 5.14228H22.1413L19.2153 1.2846ZM22.1007 6.42864H20.1506C19.4328 6.42864 18.8502 7.00479 18.8502 7.71365C18.8502 8.42532 19.4328 9 20.1506 9H22.1007C22.8185 9 23.4009 8.42532 23.4009 7.71365C23.4009 7.00479 22.8185 6.42864 22.1007 6.42864Z" fill="black"/>
</svg>
