<svg width="20" height="21" viewBox="0 0 20 21" fill="none" xmlns="http://www.w3.org/2000/svg">
<path d="M15.3743 4.77432C15.3774 4.85189 15.3625 4.92913 15.3307 5H13.8936C13.8658 4.92794 13.851 4.85153 13.8501 4.77432C13.8501 2.85682 12.2903 1.30238 10.3661 1.30238C8.44203 1.30238 6.88223 2.85682 6.88223 4.77432C6.89541 4.84898 6.89541 4.92535 6.88223 5H5.41028C5.39709 4.92535 5.39709 4.84898 5.41028 4.77432C5.52211 2.10591 7.72539 0 10.4053 0C13.0853 0 15.2886 2.10591 15.4004 4.77432H15.3743Z" fill="#9E9E9E"/>
<path d="M7.49707 10.1484C7.00897 10.1484 6.61328 9.74113 6.61328 9.23874C6.61328 8.73636 7.00897 8.3291 7.49707 8.3291C7.98517 8.3291 8.38086 8.73636 8.38086 9.23874C8.38086 9.74113 7.98517 10.1484 7.49707 10.1484Z" fill="#A19FA8"/>
<path d="M13.2861 10.1484C12.798 10.1484 12.4023 9.74113 12.4023 9.23874C12.4023 8.73636 12.798 8.3291 13.2861 8.3291C13.7742 8.3291 14.1699 8.73636 14.1699 9.23874C14.1699 9.74113 13.7742 10.1484 13.2861 10.1484Z" fill="#A19FA8"/>
<path d="M19.3137 14.3147L18.5448 8.12007C18.0763 5.90964 16.7507 5 15.4868 5H5.3321C4.05061 5 2.68074 5.84597 2.28303 8.12007L1.5053 14.3147C0.868967 18.8629 3.21101 20 6.26892 20H14.5589C17.6079 20 19.8793 18.3535 19.3137 14.3147Z" stroke="#9E9E9E"/>
</svg>
