<svg width="19" height="20" viewBox="0 0 19 20" fill="none" xmlns="http://www.w3.org/2000/svg">
<path d="M18.3132 14.3147L17.5443 8.12007C17.0759 5.90964 15.7502 5 14.4864 5H4.33161C3.05012 5 1.68025 5.84597 1.28254 8.12007L0.504807 14.3147C-0.131521 18.8629 2.21052 20 5.26843 20H13.5584C16.6075 20 18.8788 18.3535 18.3132 14.3147Z" fill="#130F26"/>
<path d="M14.3738 4.77432C14.3769 4.85189 14.362 4.92913 14.3302 5H12.8931C12.8653 4.92794 12.8505 4.85153 12.8496 4.77432C12.8496 2.85682 11.2898 1.30238 9.36565 1.30238C7.44154 1.30238 5.88174 2.85682 5.88174 4.77432C5.89493 4.84898 5.89493 4.92535 5.88174 5H4.40979C4.39661 4.92535 4.39661 4.84898 4.40979 4.77432C4.52162 2.10591 6.7249 0 9.40485 0C12.0848 0 14.2881 2.10591 14.3999 4.77432H14.3738Z" fill="#130F26"/>
<path d="M6.49707 10.1484C6.00897 10.1484 5.61328 9.74113 5.61328 9.23874C5.61328 8.73636 6.00897 8.3291 6.49707 8.3291C6.98517 8.3291 7.38086 8.73636 7.38086 9.23874C7.38086 9.74113 6.98517 10.1484 6.49707 10.1484Z" fill="#130F26"/>
<path d="M12.2856 10.1484C11.7975 10.1484 11.4019 9.74113 11.4019 9.23874C11.4019 8.73636 11.7975 8.3291 12.2856 8.3291C12.7737 8.3291 13.1694 8.73636 13.1694 9.23874C13.1694 9.74113 12.7737 10.1484 12.2856 10.1484Z" fill="#130F26"/>
</svg>
