<svg width="18" height="30" viewBox="0 0 18 30" fill="none" xmlns="http://www.w3.org/2000/svg">
<path d="M3.43805 20.2737C3.27705 20.4219 3.11671 20.5715 2.95435 20.7175C2.69745 20.9477 2.40318 21.0974 2.05224 21.11C1.39096 21.1341 0.765028 20.6267 0.644272 19.9684C0.527576 19.332 0.738476 18.8042 1.19224 18.3634C2.49924 17.094 3.80714 15.8255 5.11595 14.5581C5.31822 14.3622 5.51999 14.1657 5.72125 13.9689C5.74306 13.9477 5.76217 13.9241 5.78551 13.8982C5.62958 13.7942 5.47669 13.6952 5.32718 13.5916C4.99838 13.3636 4.691 13.1062 4.40883 12.8226C4.28047 12.6935 4.26812 12.6964 4.17206 12.8511C3.90433 13.2834 3.58435 13.6667 3.11857 13.8958C2.42245 14.2381 1.70519 14.3017 1.0106 13.9232C0.329867 13.5522 -0.036965 12.9639 0.00294857 12.1674C0.0180007 11.8655 0.110343 11.5803 0.307374 11.341C0.469058 11.1448 0.682832 11.0623 0.933138 11.0689C1.0177 11.0711 1.07267 11.112 1.08349 11.1979C1.09601 11.2982 1.09617 11.4009 1.11546 11.4992C1.15571 11.7072 1.30251 11.8572 1.47992 11.8854C1.68845 11.9193 1.8821 11.8114 1.98239 11.6096C2.05255 11.4698 2.07625 11.3112 2.05004 11.157C2.00387 10.8803 1.94501 10.6055 1.88379 10.3317C1.76862 9.81602 1.63095 9.30492 1.53404 8.78587C1.41904 8.1706 1.42834 7.54788 1.49836 6.9255C1.59323 6.08122 1.83525 5.28024 2.19904 4.51495C2.29798 4.3071 2.30052 4.11396 2.17401 3.91574C2.03499 3.69706 1.93926 3.4591 1.9281 3.19662C1.90442 2.64358 2.22695 2.22432 2.78557 2.06247C3.25455 1.92717 3.72895 1.91989 4.20808 1.98636C4.25882 1.99329 4.3082 2.00158 4.35843 2.00868C4.44012 2.02018 4.50929 1.99651 4.56138 1.93106C4.74032 1.70257 4.97067 1.57725 5.2641 1.56964C5.3901 1.56642 5.46062 1.48338 5.5254 1.3836C5.67101 1.1568 5.81595 0.927974 5.98085 0.715214C6.14 0.509558 6.34346 0.346859 6.5711 0.216802C7.06156 -0.063439 7.5642 0.011991 7.94879 0.427532C8.00797 0.491614 8.06213 0.560142 8.11081 0.632512C8.18591 0.743796 8.28366 0.789122 8.41879 0.782864C8.76178 0.765952 9.10561 0.743289 9.44843 0.751407C10.9054 0.785232 12.2442 1.19113 13.4192 2.07143C14.7135 3.04119 15.6315 4.27953 16.0607 5.85459C16.274 6.63731 16.3616 7.43541 16.3056 8.24569C16.2699 8.76118 16.1488 9.26213 16.0145 9.75953C15.918 10.1177 15.8157 10.4746 15.7284 10.8352C15.6777 11.0437 15.6655 11.258 15.7191 11.4714C15.7602 11.6353 15.851 11.7618 16.0024 11.8415C16.2814 11.9886 16.5923 11.8298 16.6342 11.5157C16.6462 11.4269 16.6423 11.3359 16.6483 11.2461C16.6577 11.1059 16.7203 11.0503 16.8617 11.0584C17.1118 11.0724 17.3099 11.1878 17.4536 11.3875C17.8397 11.9245 17.8467 12.4963 17.5617 13.0707C17.2715 13.6557 16.7699 13.9897 16.1422 14.1099C15.1723 14.296 14.3881 13.9657 13.7914 13.1847C13.6994 13.0641 13.6223 12.9328 13.5377 12.8063C13.4716 12.7065 13.4332 12.6979 13.3547 12.7833C12.9776 13.1945 12.5301 13.5138 12.0524 13.7952C11.9368 13.8628 11.9341 13.9043 12.0332 13.9997C13.1201 15.0432 14.2072 16.0865 15.2944 17.1297C15.7372 17.5549 16.182 17.9782 16.619 18.4093C16.9009 18.6871 17.0912 19.0195 17.1306 19.4212C17.2189 20.3212 16.674 20.9612 15.9244 21.0894C15.5559 21.1523 15.2197 21.0512 14.9254 20.8235C14.7273 20.6703 14.5364 20.5069 14.3253 20.3331C14.347 20.3838 14.3607 20.4176 14.375 20.4499C14.7697 21.3519 15.1638 22.2539 15.5574 23.1559C15.578 23.2021 15.5956 23.2496 15.6102 23.298C15.6587 23.4632 15.619 23.5676 15.4568 23.6305C15.2422 23.7136 15.0228 23.7861 14.8018 23.8504C14.0669 24.0619 13.3134 24.1751 12.5559 24.2683C12.3806 24.2899 12.353 24.3227 12.3521 24.5007C12.3511 25.6304 12.3504 26.7601 12.3501 27.8898C12.3501 28.3356 12.2148 28.7278 11.8894 29.0398C11.0986 29.7988 9.76943 29.408 9.49933 28.3412C9.43405 28.0831 9.45097 27.8204 9.4508 27.5593C9.44978 26.6629 9.45401 25.7677 9.4557 24.8719C9.45759 24.7961 9.455 24.7202 9.44792 24.6448C9.43625 24.5451 9.38551 24.4937 9.2881 24.4925C9.00622 24.4907 8.72463 24.4928 8.44332 24.4988C8.3366 24.5013 8.29736 24.5421 8.29533 24.6541C8.28907 25.0172 8.28738 25.3813 8.28671 25.7439C8.28671 26.2513 8.28806 26.7587 8.28772 27.265C8.28772 27.5072 8.28434 27.7496 8.28366 27.9923C8.28422 28.1809 8.24754 28.3678 8.17572 28.5422C8.10391 28.7166 7.99837 28.8751 7.86516 29.0087C7.73196 29.1422 7.5737 29.2482 7.39947 29.3205C7.22523 29.3927 7.03845 29.4299 6.84982 29.4298C6.17213 29.4334 5.55939 28.9326 5.44608 28.2574C5.40515 28.0125 5.40836 27.7585 5.40786 27.5087C5.40616 26.517 5.41056 25.5254 5.4131 24.5336C5.4131 24.3341 5.36371 24.28 5.16584 24.2581C4.25544 24.1548 3.35941 23.982 2.48655 23.6985C2.41424 23.6755 2.34411 23.6461 2.27701 23.6107C2.15524 23.5454 2.10619 23.4475 2.14272 23.3146C2.17984 23.1821 2.22677 23.0526 2.2831 22.9271C2.66329 22.0681 3.04529 21.21 3.42909 20.3529C3.43873 20.331 3.446 20.3084 3.45429 20.2852L3.43805 20.2737ZM4.16377 7.67032C4.10745 7.67032 4.05113 7.67032 3.99464 7.67032C3.93816 7.67032 3.88201 7.66914 3.82552 7.66779C3.63069 7.66288 3.57657 7.70516 3.55357 7.89627C3.47983 8.51172 3.47086 9.12531 3.59889 9.7367C3.74806 10.4489 4.01731 11.1066 4.45602 11.6908C4.81828 12.1735 5.26478 12.5672 5.75828 12.9085C6.60205 13.494 7.53765 13.8165 8.56458 13.861C9.08559 13.8835 9.60732 13.8385 10.1168 13.7272C11.3683 13.4556 12.4025 12.8298 13.1968 11.8223C13.7486 11.1225 14.0792 10.3249 14.2144 9.44428C14.2952 8.91796 14.2631 8.39401 14.1936 7.87057C14.1723 7.70939 14.1278 7.67827 13.9658 7.67218C13.7209 7.66305 13.4753 7.65832 13.2314 7.6414C12.5331 7.59286 11.8576 7.44234 11.2099 7.1736C10.4069 6.84059 9.71548 6.34742 9.121 5.71557C8.995 5.58163 8.96388 5.58281 8.83974 5.71777C8.48427 6.10723 8.07408 6.44296 7.62204 6.71443C6.55672 7.35034 5.39754 7.64529 4.16377 7.67032ZM6.00267 14.8891L5.97645 14.8759C5.94364 14.9014 5.9088 14.9251 5.87853 14.953C5.58543 15.2206 5.28845 15.4841 5.00128 15.7577C4.28419 16.4413 3.56963 17.1275 2.85762 17.8163C2.44191 18.2165 2.0271 18.6176 1.61319 19.0196C1.35781 19.2678 1.28762 19.6633 1.43155 19.9509C1.61877 20.3246 2.15405 20.5167 2.5564 20.1066C3.01304 19.6407 3.4893 19.1933 3.96335 18.7435C4.18643 18.5319 4.38008 18.3037 4.5098 18.0221C4.61127 17.8023 4.71918 17.5866 4.82404 17.3688C5.20829 16.5712 5.59226 15.7735 5.97595 14.9755C5.98696 14.9474 5.99589 14.9185 6.00267 14.8891ZM11.8603 14.9324L11.8493 14.9424C11.8547 14.9578 11.8595 14.9735 11.8662 14.9885C12.3117 16.0709 12.8233 17.1226 13.3356 18.174C13.4221 18.3489 13.5432 18.5042 13.6918 18.6307C13.7979 18.723 13.9021 18.8176 14.0043 18.9145C14.4498 19.3373 14.8902 19.7643 15.3404 20.1814C15.6589 20.4765 16.127 20.374 16.3107 19.9804C16.4593 19.6618 16.4017 19.3039 16.1367 19.0389C15.7984 18.7007 15.4497 18.3726 15.105 18.0411C14.2864 17.2551 13.4676 16.4696 12.6486 15.6845C12.386 15.4332 12.1233 15.1825 11.8603 14.9324ZM11.5967 25.3634C11.5967 25.0815 11.5967 24.8 11.5967 24.5188C11.5967 24.4049 11.5777 24.3877 11.4622 24.3921C11.4424 24.3921 11.4228 24.3941 11.4032 24.3955C11.0747 24.4176 10.7463 24.4411 10.4177 24.4614C10.2486 24.4717 10.2237 24.4952 10.2237 24.6632C10.2246 25.7104 10.2257 26.7577 10.2269 27.805C10.2269 27.9172 10.2269 28.031 10.245 28.1413C10.292 28.4337 10.575 28.6701 10.8833 28.6853C11.2185 28.7022 11.4742 28.525 11.5542 28.2136C11.5734 28.1315 11.5827 28.0473 11.5819 27.963C11.5886 27.3611 11.5934 26.7592 11.5965 26.1572C11.5978 25.8927 11.5967 25.628 11.5967 25.3634ZM7.52074 26.337H7.53765C7.53765 25.7882 7.53765 25.2393 7.53765 24.6904C7.53765 24.499 7.5067 24.4706 7.3122 24.4614C7.01979 24.4474 6.72754 24.4325 6.43563 24.4119C6.19243 24.395 6.16942 24.4139 6.16993 24.6591C6.17145 25.4249 6.17078 26.1906 6.17315 26.9562C6.17416 27.3249 6.17078 27.6939 6.18651 28.0621C6.20342 28.4391 6.57854 28.732 6.95045 28.6752C7.30003 28.6216 7.51972 28.3609 7.52074 27.9923C7.52175 27.4406 7.52074 26.8887 7.52074 26.337ZM3.49911 2.5947C3.26808 2.59961 3.06412 2.61838 2.87334 2.7048C2.62896 2.81541 2.53509 3.02445 2.61593 3.27983C2.6528 3.39467 2.69644 3.50747 2.7399 3.62011C2.90683 4.05324 3.0971 4.47572 3.32728 4.87925C3.44905 5.09285 3.62629 5.16507 3.85478 5.07949C3.97114 5.03807 4.08044 4.97897 4.17882 4.90428C4.56087 4.59985 4.81524 4.19598 5.03679 3.76877C5.06859 3.70721 5.05235 3.65326 5.00077 3.61064C4.75892 3.4109 4.61855 3.15823 4.5925 2.84349C4.5876 2.78311 4.55868 2.73457 4.49289 2.72358C4.15514 2.66777 3.82264 2.56849 3.49911 2.5947ZM8.62614 1.50976C8.68939 1.66367 8.73878 1.79728 8.79966 1.92632C8.84888 2.03033 8.94748 2.05722 9.05521 2.05638C9.11728 2.05638 9.17918 2.05435 9.24125 2.05638C9.72224 2.06957 10.1917 2.15616 10.6545 2.28165C11.5329 2.51995 12.3203 2.93008 12.9894 3.55094C13.7612 4.26226 14.3406 5.15722 14.6737 6.15259C14.7003 6.2309 14.729 6.30836 14.761 6.39833C14.761 6.2495 14.7672 6.11572 14.7601 5.98279C14.7101 5.06309 14.3796 4.25027 13.7953 3.54603C13.0493 2.64747 12.0897 2.07464 10.9724 1.75906C10.3805 1.59162 9.77518 1.52431 9.16278 1.51044C8.98891 1.50655 8.81539 1.50976 8.62614 1.50976ZM7.17555 3.21117C7.32641 3.19645 7.49993 3.18241 7.67261 3.16144C7.73937 3.15167 7.80502 3.13542 7.86863 3.1129C8.23276 2.99452 8.376 2.73339 8.23918 2.37839C8.09509 2.00632 7.92308 1.64625 7.75159 1.28652C7.68069 1.1397 7.59392 1.0011 7.49283 0.873177C7.3347 0.672256 7.14443 0.641137 6.92508 0.769672C6.83362 0.824453 6.74829 0.888862 6.67054 0.961799C6.33669 1.27011 6.10786 1.65369 5.90052 2.05198C5.86974 2.11101 5.88107 2.15346 5.92842 2.20132C6.01172 2.28066 6.08863 2.36644 6.15843 2.45788C6.28426 2.63191 6.33128 2.83385 6.33449 3.04644C6.33551 3.10631 6.34938 3.15451 6.41906 3.15924C6.66327 3.17734 6.90715 3.19256 7.17555 3.21117ZM6.03937 2.9913C6.03937 2.76383 5.98237 2.59842 5.8579 2.46228C5.6957 2.28504 5.4958 2.20504 5.25699 2.271C5.04017 2.33104 4.89625 2.47682 4.8609 2.69804C4.81524 2.98352 4.92856 3.21827 5.15485 3.39145C5.3353 3.52929 5.53977 3.56971 5.74898 3.46384C5.95548 3.35881 6.03598 3.17277 6.03937 2.9913Z" fill="black"/>
<path d="M6.12789 10.2634C5.71303 10.2634 5.37934 9.92345 5.37799 9.49996C5.37671 9.3963 5.39609 9.29343 5.43501 9.19735C5.47392 9.10127 5.5316 9.0139 5.60465 8.94036C5.67771 8.86681 5.76469 8.80856 5.86051 8.76901C5.95633 8.72945 6.05907 8.70938 6.16273 8.70997C6.57945 8.7115 6.9336 9.08205 6.93174 9.51332C6.93005 9.9314 6.57404 10.2634 6.12789 10.2634Z" fill="black"/>
<path d="M10.801 9.48646C10.7998 9.05671 11.1542 8.70764 11.5895 8.70966C11.9954 8.71152 12.3536 9.08174 12.3528 9.50151C12.3519 9.92128 11.9959 10.26 11.5563 10.2614C11.1347 10.2634 10.8022 9.92145 10.801 9.48646Z" fill="black"/>
<path d="M8.88303 12.2422C8.50893 12.2367 8.18133 12.1207 7.93306 11.8293C7.88516 11.7709 7.84862 11.704 7.82532 11.6321C7.78321 11.5061 7.83699 11.3784 7.94997 11.3025C8.05652 11.2303 8.16205 11.2348 8.2752 11.3243C8.41726 11.4376 8.56423 11.5374 8.74875 11.5677C9.00497 11.6098 9.22551 11.541 9.4178 11.3676C9.46651 11.3236 9.52334 11.2795 9.58439 11.2599C9.70752 11.2203 9.7936 11.2959 9.86531 11.3838C9.947 11.4838 9.95326 11.5954 9.88983 11.7062C9.7839 11.8938 9.62016 12.0421 9.42305 12.129C9.25402 12.2074 9.06931 12.2461 8.88303 12.2422Z" fill="black"/>
</svg>
