<svg width="17" height="17" viewBox="0 0 17 17" fill="none" xmlns="http://www.w3.org/2000/svg">
<path fill-rule="evenodd" clip-rule="evenodd" d="M8.33333 0C3.73106 0 0 3.73106 0 8.33333C0 12.9356 3.73106 16.6667 8.33333 16.6667C12.9356 16.6667 16.6667 12.9356 16.6667 8.33333C16.6667 3.73106 12.9356 0 8.33333 0ZM11.9455 6.92424C12.012 6.84821 12.0626 6.75965 12.0944 6.66376C12.1262 6.56788 12.1384 6.4666 12.1305 6.3659C12.1226 6.26519 12.0946 6.16709 12.0482 6.07737C12.0018 5.98765 11.9379 5.90811 11.8603 5.84344C11.7827 5.77877 11.6929 5.73028 11.5963 5.70081C11.4997 5.67134 11.3981 5.66149 11.2976 5.67184C11.1972 5.68219 11.0998 5.71254 11.0112 5.76109C10.9226 5.80964 10.8446 5.87541 10.7818 5.95455L7.52424 9.86288L5.83864 8.17652C5.69576 8.03852 5.50439 7.96216 5.30576 7.96388C5.10712 7.96561 4.91711 8.04528 4.77665 8.18574C4.63619 8.32621 4.55652 8.51621 4.55479 8.71485C4.55307 8.91348 4.62943 9.10485 4.76742 9.24773L7.04015 11.5205C7.11459 11.5948 7.20371 11.6529 7.30183 11.691C7.39995 11.729 7.50492 11.7462 7.61005 11.7414C7.71518 11.7366 7.81816 11.71 7.91243 11.6632C8.0067 11.6164 8.09019 11.5505 8.15758 11.4697L11.9455 6.92424Z" fill="#404040"/>
</svg>
