<svg width="17" height="15" viewBox="0 0 17 15" fill="none" xmlns="http://www.w3.org/2000/svg">
<path fill-rule="evenodd" clip-rule="evenodd" d="M6.50273 9.79381C7.02312 10.1466 7.65735 10.3599 8.33224 10.3599C10.1211 10.3599 11.5766 8.89134 11.5766 7.08641C11.5766 6.40546 11.3652 5.76553 11.0155 5.24046L10.1292 6.13472C10.2756 6.41366 10.3569 6.74183 10.3569 7.08641C10.3569 8.21039 9.4462 9.12926 8.33224 9.12926C7.99073 9.12926 7.66548 9.04722 7.38902 8.89955L6.50273 9.79381ZM13.6907 2.54126C14.8697 3.62422 15.8698 5.08458 16.6179 6.84028C16.6829 6.99616 16.6829 7.17666 16.6179 7.32433C14.8778 11.41 11.7798 13.8549 8.33224 13.8549H8.32411C6.75479 13.8549 5.25053 13.338 3.92515 12.3946L2.34771 13.9862C2.22574 14.1092 2.07125 14.1667 1.91676 14.1667C1.76226 14.1667 1.59964 14.1092 1.48581 13.9862C1.28253 13.7811 1.25 13.4529 1.41263 13.215L1.43702 13.1822L13.463 1.04809C13.4793 1.03168 13.4955 1.01527 13.5036 0.998866L13.5037 0.99886C13.5199 0.982454 13.5362 0.966047 13.5443 0.949641L14.3086 0.178442C14.5526 -0.0594807 14.9347 -0.0594807 15.1705 0.178442C15.4145 0.416365 15.4145 0.810169 15.1705 1.04809L13.6907 2.54126ZM5.08197 7.08961C5.08197 7.30292 5.10636 7.51623 5.13889 7.71313L2.13036 10.7487C1.31725 9.79701 0.609836 8.64842 0.0487869 7.32753C-0.0162623 7.17986 -0.0162623 6.99936 0.0487869 6.84348C1.78885 2.75777 4.88682 0.321114 8.3263 0.321114H8.33443C9.49719 0.321114 10.6274 0.600058 11.6682 1.12513L8.9524 3.86534C8.75725 3.83253 8.54584 3.80791 8.33443 3.80791C6.53745 3.80791 5.08197 5.27647 5.08197 7.08961Z" fill="#212121"/>
</svg>
