<svg width="52" height="52" viewBox="0 0 52 52" fill="none" xmlns="http://www.w3.org/2000/svg">
<circle cx="26" cy="26" r="26" fill="#D9D9D9"/>
<circle cx="26" cy="26" r="18" fill="#1D1D1D"/>
<g clip-path="url(#clip0_2893_841)">
<path d="M25.2102 34.4657C23.545 34.4457 21.8832 34.3646 20.2672 33.927C19.7215 33.7718 19.196 33.553 18.7014 33.2752C18.1221 32.9576 17.9051 32.3841 18.0382 31.7614C18.2461 30.7852 18.6437 29.8832 19.3749 29.1651C19.7445 28.8018 20.1815 28.5567 20.6933 28.4796C20.9675 28.439 21.1417 28.2939 21.212 28.0597C21.3314 27.6627 21.4502 27.26 21.4931 26.8475C21.6073 25.7439 21.3942 24.6517 21.3337 23.5537C21.2474 21.9834 21.4753 20.457 22.511 19.1722C22.9817 18.5879 23.6004 18.1857 24.3322 18.0909C25.0639 17.996 25.8174 17.9606 26.5435 18.0526C27.9036 18.224 28.7765 19.0877 29.2638 20.3296C29.7345 21.5188 29.8859 22.8105 29.703 24.0764C29.5477 25.1983 29.4568 26.3266 29.6728 27.4536C29.7052 27.6116 29.7503 27.7667 29.8076 27.9175C29.9218 28.2254 30.0932 28.4373 30.4634 28.499C31.206 28.6236 31.7441 29.0868 32.1674 29.6906C32.5758 30.2727 32.8443 30.9223 33.0243 31.6043C33.2151 32.3235 32.9534 32.941 32.3114 33.3392C31.5282 33.8248 30.6445 34.011 29.7545 34.1624C28.2515 34.4189 26.7337 34.4886 25.2102 34.4657ZM28.444 23.5463C27.1056 22.8574 25.7814 22.1753 24.4578 21.4938C23.9037 21.2082 23.4496 21.2944 23.04 21.7686C22.6853 22.1793 22.5522 22.6826 22.4362 23.1784C22.3219 23.2458 22.182 23.3184 22.1506 23.4229C22.0186 23.8799 22.1197 24.3049 22.3836 24.6928C22.4185 24.7431 22.4905 24.7671 22.5396 24.807C22.6138 24.8699 22.7178 24.9253 22.7504 25.007C23.036 25.7422 23.4444 26.3945 24.0208 26.9424C24.8651 27.745 25.8968 27.8284 26.8388 27.1423C27.5026 26.6585 27.9322 25.9935 28.2606 25.2538C28.3492 25.0532 28.3635 24.7876 28.6679 24.7556C28.7028 24.7522 28.7382 24.6939 28.7622 24.6545C28.9804 24.2923 29.0821 23.9039 28.9856 23.484C28.9627 23.3852 28.8919 23.2972 28.833 23.1847L28.444 23.5463ZM23.4999 27.3262C23.4484 27.8318 23.112 28.0426 22.7572 28.2185C22.98 28.9726 24.3687 29.7009 25.5381 29.7004C26.7263 29.7004 28.1053 28.9703 28.332 28.2077C27.9722 28.0409 27.6677 27.8118 27.6043 27.3382C27.0045 27.8844 26.371 28.2871 25.5655 28.2882C24.76 28.2894 24.1197 27.8969 23.4999 27.3262Z" fill="white"/>
</g>
<defs>
<clipPath id="clip0_2893_841">
<rect width="15.0861" height="16.4697" fill="white" transform="translate(18 18)"/>
</clipPath>
</defs>
</svg>
