<svg width="45" height="49" viewBox="0 0 45 49" fill="none" xmlns="http://www.w3.org/2000/svg">
<path d="M21.6409 48.1075C16.776 48.0491 11.9212 47.8121 7.19983 46.5337C5.60572 46.0803 4.07037 45.4412 2.62536 44.6295C0.933088 43.7016 0.298907 42.026 0.687761 40.2069C1.29524 37.3548 2.4568 34.7195 4.593 32.6217C5.67278 31.5603 6.94949 30.8443 8.44483 30.619C9.2459 30.5006 9.75491 30.0767 9.96019 29.3924C10.309 28.2325 10.6561 27.0559 10.7813 25.851C11.1151 22.6267 10.4926 19.4357 10.3157 16.2281C10.0637 11.6403 10.7296 7.18094 13.7553 3.42758C15.1305 1.72029 16.9379 0.545377 19.0757 0.268339C21.2136 -0.00869934 23.4149 -0.112171 25.5361 0.156523C29.5098 0.657194 32.0598 3.18058 33.4834 6.80878C34.8587 10.2832 35.3011 14.0569 34.7668 17.7551C34.3129 21.0329 34.0475 24.3289 34.6784 27.6217C34.7731 28.0832 34.9048 28.5364 35.0722 28.9768C35.406 29.8764 35.9067 30.4956 36.9881 30.6758C39.1577 31.0396 40.7298 32.3931 41.9664 34.1571C43.1597 35.8577 43.9441 37.7553 44.4698 39.748C45.0272 41.8491 44.2629 43.6532 42.387 44.8164C40.0989 46.235 37.5172 46.7791 34.917 47.2213C30.5261 47.9707 26.0918 48.1743 21.6409 48.1075ZM31.0885 16.2064C27.1783 14.1937 23.3098 12.201 19.4429 10.21C17.8241 9.37556 16.4973 9.62756 15.3007 11.0128C14.2643 12.2127 13.8754 13.683 13.5367 15.1316C13.2029 15.3285 12.794 15.5405 12.7022 15.8459C12.3167 17.181 12.6121 18.4227 13.3831 19.5559C13.4849 19.7027 13.6952 19.7728 13.8387 19.8897C14.0557 20.0732 14.3594 20.2351 14.4546 20.4738C15.289 22.6217 16.4823 24.5275 18.1662 26.128C20.6328 28.4728 23.6469 28.7165 26.3989 26.7121C28.3382 25.2986 29.5932 23.356 30.5528 21.1947C30.8115 20.609 30.8532 19.8329 31.7427 19.7395C31.8445 19.7294 31.948 19.5592 32.0181 19.4441C32.6556 18.386 32.9527 17.2511 32.6707 16.0245C32.6039 15.7358 32.397 15.4787 32.2251 15.15L31.0885 16.2064ZM16.6442 27.2495C16.494 28.7265 15.511 29.3423 14.4746 29.8564C15.1255 32.0593 19.1826 34.1872 22.5988 34.1855C26.0701 34.1855 30.0989 32.0526 30.7614 29.8247C29.71 29.3373 28.8205 28.6681 28.6352 27.2846C26.8829 28.8801 25.0321 30.0566 22.6789 30.06C20.3258 30.0633 18.4549 28.9168 16.6442 27.2495Z" fill="black"/>
</svg>
