<svg width="25" height="27" viewBox="0 0 25 27" fill="none" xmlns="http://www.w3.org/2000/svg">
<path d="M8.85966 6.78429C8.34046 9.03911 7.97689 11.2699 6.9546 13.2925C6.88618 13.4282 6.95683 13.642 6.96309 13.8196C7.11112 13.7296 7.34769 13.6745 7.3933 13.545C7.89461 12.115 8.39144 10.6821 8.83551 9.23177C9.06805 8.47246 9.19326 7.67736 9.37929 6.84552L10.6735 6.9515C10.584 7.70515 10.5018 8.41641 10.4092 9.1272C9.93024 12.8055 9.44279 16.4828 8.97816 20.1635C8.94417 20.4348 9.08459 20.9769 9.11635 20.9746C9.59082 20.9397 9.44414 20.5007 9.48304 20.2096C10.0066 16.2743 10.5222 12.3376 11.0299 8.39945C11.0876 7.95716 11.1497 7.51533 11.2146 7.04053H13.7023C13.8848 8.39286 14.0748 9.7532 14.251 11.115C14.6553 14.2395 15.0566 17.364 15.4549 20.4885C15.4737 20.6345 15.4996 20.7923 15.5738 20.9124C15.6123 20.976 15.8256 21.0132 15.8372 20.9911C15.907 20.8582 15.9933 20.6981 15.9785 20.5591C15.8685 19.5393 15.7429 18.5215 15.6096 17.505C15.1714 14.1597 14.7307 10.8154 14.2877 7.47199C14.2685 7.32644 14.2707 7.17807 14.2595 6.96139C14.6298 6.92889 14.9786 6.86106 15.3203 6.88886C15.4361 6.89828 15.5886 7.13379 15.6333 7.29347C16.043 8.83657 16.4123 10.3919 16.8407 11.9294C16.9932 12.4791 17.2504 13.0019 17.5053 13.5116C17.5786 13.6585 17.8103 13.7179 17.9695 13.8177C17.9695 13.6392 18.0303 13.4263 17.9605 13.2869C16.9445 11.2614 16.5805 9.03299 16.0658 6.80548C16.6874 6.63356 17.2754 6.44609 17.876 6.32597C17.9999 6.30148 18.2002 6.50073 18.3125 6.64298C19.4331 8.06172 20.2457 9.67878 20.954 11.3533C22.83 15.7852 24.0817 20.423 24.998 25.1682C25.0048 25.2026 24.99 25.2417 24.9645 25.4414C23.9489 25.7085 22.8873 26.0627 21.8001 26.26C17.3568 27.0674 12.8773 27.1201 8.38876 26.8724C5.99716 26.7391 3.61807 26.4955 1.29579 25.8361C-0.155805 25.4239 -0.148203 25.4202 0.177802 23.8931C1.14419 19.3519 2.35385 14.8889 4.292 10.6906C4.93015 9.30619 5.79055 8.03535 6.55347 6.71552C6.75918 6.35942 7.00067 6.22329 7.42863 6.41123C7.8566 6.59917 8.33957 6.65428 8.85966 6.78429Z" fill="black"/>
<path d="M12.6665 2.84503C14.1548 2.46538 14.4821 2.16392 15.7969 0C16.668 0.408384 17.5552 0.813943 18.43 1.24776C18.5315 1.29816 18.6164 1.50165 18.6209 1.63731C18.6719 3.18606 18.0369 3.99906 16.5862 4.32972C16.2114 4.41498 15.8546 4.5935 15.4946 4.74376C15.2325 4.85304 14.9861 5.00754 14.7205 5.10457C13.7085 5.47433 13.1065 5.14602 12.8449 4.06594C12.7519 3.67593 12.7264 3.26755 12.6665 2.84503Z" fill="black"/>
<path d="M12.1721 3.04711C12.1327 3.32549 12.1081 3.79275 11.9959 4.23505C11.7772 5.09515 11.2428 5.40368 10.4249 5.18983C10.238 5.14273 10.0604 5.04852 9.87753 4.98305C9.18304 4.72398 8.49614 4.43571 7.79047 4.21574C6.83258 3.9171 6.01465 2.4635 6.29102 1.45926C6.32716 1.36032 6.39812 1.27985 6.48914 1.23458C7.35625 0.821956 8.22783 0.420167 9.07303 0.0268555C9.50413 0.647204 9.83908 1.29864 10.3252 1.78098C10.8113 2.26331 11.4494 2.56336 12.1721 3.04711Z" fill="black"/>
<path d="M7.14551 5.81252C7.23942 5.37681 7.30605 5.07017 7.39862 4.64153C8.00814 4.84408 8.60605 5.03108 9.19501 5.24257C9.6422 5.40366 10.0706 5.6665 10.5299 5.7607C11.4435 5.94912 11.8862 5.6665 12.4403 4.67027C12.777 5.2421 13.1428 5.83795 13.8432 5.77342C14.4245 5.71973 15.0009 5.51106 15.5662 5.32689C16.1999 5.12057 16.8183 4.86433 17.4842 4.61469C17.5893 5.04615 17.6667 5.36504 17.7744 5.80734C14.2331 6.699 10.7235 6.70795 7.14551 5.81252Z" fill="black"/>
<path d="M10.1641 0.682037C11.6962 1.63352 13.2104 1.64765 14.7304 0.631165C14.4916 1.47572 13.4049 2.21524 12.6286 2.25104C11.5025 2.30333 10.7472 1.6533 10.1641 0.682037Z" fill="black"/>
</svg>
