<svg width="83" height="46" viewBox="0 0 83 46" fill="none" xmlns="http://www.w3.org/2000/svg">
<path d="M63.661 27.8916L54.0291 25.6665V13.2684L63.661 12.7908V27.8916Z" fill="#F7921F"/>
<path d="M65.7703 27.8916L75.4022 25.6665V13.2684L65.7703 12.7908V27.8916Z" fill="#F7921F"/>
<path d="M63.661 11.7279L52.8198 12.454V9.08872L63.661 8.38751V11.7279Z" fill="#EF4923"/>
<path d="M65.7703 11.7279L76.6142 12.454V9.08872L65.7703 8.38751V11.7279Z" fill="#EF4923"/>
<path d="M53.2092 2.5791C53.2092 2.5791 56.8147 8.92864 63.8323 7.46548C63.8323 7.46548 58.1204 8.16946 54.2969 2.5791H53.2092Z" fill="#EE9022"/>
<path d="M55.6027 1.36713C55.6027 1.36713 54.8766 2.31128 54.2969 2.57906C54.2969 2.57906 57.444 7.82433 63.8322 7.46545C63.835 7.46545 57.2094 6.62068 55.6027 1.36713Z" fill="#E96925"/>
<path d="M76.1116 2.5791C76.1116 2.5791 72.5061 8.92864 65.4885 7.46548C65.4885 7.46548 71.2004 8.16946 75.0239 2.5791H76.1116Z" fill="#EE9022"/>
<path d="M73.7181 1.36713C73.7181 1.36713 74.4441 2.31128 75.0239 2.57906C75.0239 2.57906 71.8767 7.82433 65.4885 7.46545C65.4913 7.46545 72.1169 6.62068 73.7181 1.36713Z" fill="#E96925"/>
<path d="M64.6053 6.52132C64.6053 6.52132 63.1118 2.69227 61.4857 4.42597C61.4857 4.42597 59.8293 6.28114 63.8323 7.46271C63.4182 7.34124 62.9655 7.30811 62.5431 7.18664C61.6579 6.96327 60.8175 6.58977 60.0585 6.08238C58.7665 5.17412 58.0377 3.20576 59.0371 1.79229C59.2834 1.46279 59.6303 1.22245 60.0253 1.10764C61.1931 0.740474 62.2339 1.21255 63.0069 2.0794C63.3681 2.48758 63.6811 2.93591 63.94 3.41557C64.1592 3.78044 64.344 4.16491 64.4921 4.56401C64.593 4.99706 64.6284 5.44281 64.597 5.88636C64.5707 6.09739 64.5735 6.31105 64.6053 6.52132Z" fill="#E48E25"/>
<path d="M64.6053 6.52132C64.6053 6.52132 66.1016 2.69227 67.7276 4.42597C67.7276 4.42597 69.384 6.28114 65.381 7.46271C65.7951 7.34124 66.2479 7.30811 66.6702 7.18664C67.5509 6.96262 68.3867 6.58911 69.141 6.08238C70.433 5.17412 71.1646 3.20576 70.1652 1.79229C69.9179 1.46259 69.5701 1.22228 69.1742 1.10764C68.0092 0.740474 66.9656 1.21255 66.1926 2.0794C65.8323 2.48765 65.5201 2.93598 65.2623 3.41557C65.0419 3.77985 64.857 4.16442 64.7101 4.56401C64.6097 4.99714 64.5734 5.44268 64.6025 5.88636C64.6355 6.09666 64.6364 6.31074 64.6053 6.52132Z" fill="#E48E25"/>
<path d="M63.8349 7.46549C63.3076 7.29157 62.7085 7.28329 62.1785 7.1066C61.2536 6.80845 60.246 6.30601 59.785 5.40879C59.5004 4.79158 59.4504 4.09186 59.6442 3.44044C59.6985 3.16378 59.8363 2.9104 60.039 2.71438C61.0135 1.88618 62.4766 2.65917 63.1502 3.46804C63.5214 3.93096 63.8288 4.44165 64.064 4.98641C64.2876 5.48333 64.3981 6.02994 64.6162 6.52134C64.2297 5.66001 63.3269 3.57018 62.0653 3.97324C61.8227 4.05829 61.6111 4.21406 61.4579 4.42047C61.2537 4.6767 61.1393 4.99288 61.1322 5.32045C61.1128 6.60416 62.8548 7.14525 63.8349 7.46549Z" fill="#E77725"/>
<path d="M65.3809 7.46549C65.9082 7.29157 66.5073 7.28329 67.0373 7.1066C67.9621 6.80845 68.9697 6.30601 69.4308 5.40879C69.7153 4.79158 69.7654 4.09186 69.5716 3.44044C69.5172 3.16378 69.3795 2.9104 69.1768 2.71438C68.2023 1.88618 66.7391 2.65917 66.0655 3.46804C65.6943 3.93096 65.387 4.44165 65.1517 4.98641C64.9281 5.48333 64.8177 6.02994 64.5996 6.52134C64.9889 5.66001 65.8916 3.57018 67.1532 3.97324C67.3958 4.05829 67.6073 4.21406 67.7606 4.42047C67.9648 4.6767 68.0792 4.99288 68.0863 5.32045C68.1001 6.60416 66.3582 7.14525 65.3809 7.46549Z" fill="#E77725"/>
<path d="M42.8484 9.74302L51.9006 9.08875V10.77L42.8484 9.74302Z" fill="#F89A28"/>
<path d="M45.0266 16.2775L52.82 15.5018V17.0505L45.0266 16.2775Z" fill="#F89A28"/>
<path d="M37.5728 20.101L52.8199 19.2783V21.2136L37.5728 20.101Z" fill="#F89A28"/>
<path d="M41.8821 24.1178L52.8199 23.2952V25.0841L41.8821 24.1178Z" fill="#F89A28"/>
<path d="M12.2905 31.9884H8.89763C8.42832 31.1437 7.56699 30.6937 6.41303 30.6937C4.43915 30.6937 3.12786 32.0961 3.12786 34.2826C3.12786 36.6153 4.45569 37.9819 6.66423 37.9819C8.19088 37.9819 9.24823 37.173 9.71754 35.754H5.81951V33.493H12.5003V36.3475C11.8516 38.5202 9.73965 40.6928 6.42685 40.6928C2.65853 40.6928 0 38.0536 0 34.2826C0 30.5115 2.63919 27.8557 6.41027 27.8557C9.44977 27.8585 11.6252 29.4017 12.2905 31.9884Z" fill="#EF4923"/>
<path d="M13.9248 27.8944C13.9248 26.9613 14.6592 26.238 15.7552 26.238C16.8511 26.238 17.5689 26.9751 17.5689 27.8944C17.5689 28.8137 16.8318 29.5508 15.7552 29.5508C14.6785 29.5508 13.9248 28.8082 13.9248 27.8944ZM14.2009 30.5861H17.2708V40.6046H14.2009V30.5861Z" fill="#EF4923"/>
<path d="M19.8133 33.1369H18.709V30.5861H19.8133V30.31C19.8133 27.6901 21.4282 26.3981 24.4815 26.5582V29.1616C23.2944 29.0898 22.8831 29.4376 22.8831 30.5088V30.5971H24.5395V33.148H22.8831V40.6156H19.8133V33.1369Z" fill="#EF4923"/>
<path d="M26.4556 33.1369H25.2354V30.5861H26.4556V28.1456H29.5254V30.5861H31.5352V33.1369H29.5254V37.1592C29.5254 37.75 29.7767 37.9874 30.4586 37.9874H31.5629V40.5907H30.0003C27.9187 40.5907 26.4638 39.7128 26.4638 37.1095L26.4556 33.1369Z" fill="#EF4923"/>
<path d="M41.6253 40.7315C38.9144 40.7315 36.7969 39.3843 36.7058 36.8335H39.9745C40.0628 37.8052 40.6757 38.2718 41.537 38.2718C42.3983 38.2718 43.0084 37.8218 43.0084 37.0874C43.0084 34.7519 36.7058 36.008 36.7417 31.5385C36.7417 29.1505 38.699 27.8226 41.3382 27.8226C44.0851 27.8226 45.9348 29.1864 46.0618 31.591H42.749C42.6965 30.7848 42.1223 30.299 41.2968 30.2824C40.5597 30.2631 40.002 30.6413 40.002 31.4308C40.002 33.62 46.2329 32.6345 46.2329 36.8528C46.2218 38.9702 44.571 40.7315 41.6253 40.7315Z" fill="#F3AA1E"/>
<path d="M48.0991 27.3202H51.169V31.9333C51.7791 31.0719 52.8751 30.4784 54.2582 30.4784C56.5385 30.4784 58.0624 32.0603 58.0624 34.7519V40.6045H55.0257V35.166C55.0257 33.7995 54.272 33.0458 53.0932 33.0458C51.9144 33.0458 51.1607 33.7995 51.1607 35.166V40.6045H48.0991V27.3202Z" fill="#F3AA1E"/>
<path d="M64.7681 40.7481C61.8253 40.7481 59.5974 38.7742 59.5974 35.5967C59.5974 32.4191 61.8778 30.4425 64.8041 30.4425C67.7304 30.4425 70.0107 32.4191 70.0107 35.5967C70.0107 38.7742 67.7138 40.7481 64.7681 40.7481ZM64.7681 38.0923C65.8724 38.0923 66.8884 37.2834 66.8884 35.6077C66.8884 33.932 65.8807 33.1231 64.8041 33.1231C63.7274 33.1231 62.7225 33.9127 62.7225 35.6077C62.7225 37.3028 63.6556 38.0923 64.7681 38.0923Z" fill="#F3AA1E"/>
<path d="M77.8041 30.4425C80.2638 30.4425 82.2212 32.4191 82.2212 35.5773C82.2212 38.7356 80.2638 40.7481 77.8041 40.7481C77.2009 40.7714 76.6017 40.6422 76.0617 40.3724C75.5217 40.1027 75.0585 39.7011 74.7148 39.2049V45.3805H71.645V30.586H74.7148V32.005C75.2725 31.1244 76.3299 30.4425 77.8041 30.4425ZM76.8875 33.1176C75.7391 33.1176 74.6983 33.9982 74.6983 35.6022C74.6983 37.2061 75.7391 38.0868 76.8875 38.0868C78.036 38.0868 79.0961 37.1896 79.0961 35.6022C79.0961 34.0148 78.0553 33.1176 76.8875 33.1176Z" fill="#F3AA1E"/>
</svg>
