<svg width="52" height="52" viewBox="0 0 52 52" fill="none" xmlns="http://www.w3.org/2000/svg">
<rect width="52" height="52" rx="26" fill="#101010" fill-opacity="0.12"/>
<rect x="8" y="8" width="36" height="36" rx="18" fill="url(#paint0_linear_2893_833)"/>
<path fill-rule="evenodd" clip-rule="evenodd" d="M18.9167 24.5982C18.9167 20.765 22.1199 17.6667 25.9945 17.6667C29.8801 17.6667 33.0833 20.765 33.0833 24.5982C33.0833 26.5298 32.3808 28.3231 31.2246 29.8431C29.949 31.5197 28.3768 32.9805 26.6071 34.1271C26.2021 34.3921 25.8366 34.4121 25.392 34.1271C23.6123 32.9805 22.0401 31.5197 20.7754 29.8431C19.6183 28.3231 18.9167 26.5298 18.9167 24.5982ZM23.6619 24.814C23.6619 26.0982 24.7097 27.1081 25.9945 27.1081C27.2802 27.1081 28.3381 26.0982 28.3381 24.814C28.3381 23.5399 27.2802 22.4808 25.9945 22.4808C24.7097 22.4808 23.6619 23.5399 23.6619 24.814Z" fill="white"/>
<defs>
<linearGradient id="paint0_linear_2893_833" x1="44" y1="44" x2="1.16323" y2="31.5799" gradientUnits="userSpaceOnUse">
<stop stop-color="#101010"/>
<stop offset="1" stop-color="#313130"/>
</linearGradient>
</defs>
</svg>
