<svg width="13" height="16" viewBox="0 0 13 16" fill="none" xmlns="http://www.w3.org/2000/svg">
<path fill-rule="evenodd" clip-rule="evenodd" d="M10.7015 4.118V5.28819C12.016 5.69847 12.9737 6.88837 12.9737 8.30957V12.0772C12.9737 13.8366 11.515 15.2632 9.71669 15.2632H3.25777C1.45867 15.2632 0 13.8366 0 12.0772V8.30957C0 6.88837 0.958486 5.69847 2.27214 5.28819V4.118C2.27989 1.84286 4.1643 0 6.47521 0C8.81714 0 10.7015 1.84286 10.7015 4.118ZM6.49068 1.3272C8.06489 1.3272 9.34442 2.57853 9.34442 4.11804V5.12365H3.62918V4.10287C3.63693 2.57095 4.91647 1.3272 6.49068 1.3272ZM7.16528 11.0313C7.16528 11.403 6.86285 11.6987 6.48287 11.6987C6.11064 11.6987 5.8082 11.403 5.8082 11.0313V9.34774C5.8082 8.98372 6.11064 8.68795 6.48287 8.68795C6.86285 8.68795 7.16528 8.98372 7.16528 9.34774V11.0313Z" fill="#212121"/>
</svg>
