<svg width="15" height="14" viewBox="0 0 15 14" fill="none" xmlns="http://www.w3.org/2000/svg">
<path fill-rule="evenodd" clip-rule="evenodd" d="M11.0425 0C12.0337 0 12.9872 0.391761 13.6887 1.09471C14.3909 1.79619 14.7834 2.74233 14.7834 3.73282V9.57227C14.7834 11.6346 13.1055 13.3051 11.0425 13.3051H3.74021C1.67718 13.3051 0 11.6346 0 9.57227V3.73282C0 1.67053 1.66979 0 3.74021 0H11.0425ZM12.2186 4.83426L12.2777 4.77513C12.4544 4.56077 12.4544 4.25032 12.2696 4.03596C12.1668 3.92582 12.0256 3.85856 11.8785 3.84378C11.7233 3.83564 11.5755 3.88813 11.4639 3.99161L8.13095 6.65263C7.70223 7.00817 7.08798 7.00817 6.65261 6.65263L3.32634 3.99161C3.09645 3.8216 2.77861 3.84378 2.58716 4.04335C2.38759 4.24293 2.36541 4.56077 2.53468 4.78252L2.63151 4.87862L5.99474 7.50267C6.40868 7.82791 6.91058 8.00531 7.43613 8.00531C7.9602 8.00531 8.47097 7.82791 8.88416 7.50267L12.2186 4.83426Z" fill="#212121"/>
</svg>
