<svg width="20" height="38" viewBox="0 0 20 38" fill="none" xmlns="http://www.w3.org/2000/svg">
<path d="M19.6411 12.8058C19.6509 11.5199 19.0389 10.8674 17.8543 10.8257C16.0617 10.7546 14.2601 10.7533 12.4639 10.8318C11.3557 10.8729 10.6929 11.5051 10.6929 12.7077C10.6978 20.3204 10.6929 27.9328 10.6978 35.5455C10.6978 36.7382 11.2951 37.3177 12.4946 37.3128C14.154 37.2974 15.817 37.3176 17.4765 37.3079C19.2897 37.2969 19.6203 36.9602 19.6252 35.0898C19.6368 31.4461 19.6307 27.7967 19.6252 24.1541C19.6258 20.3712 19.6001 16.5882 19.6411 12.8058ZM18.1148 36.2759C17.2833 35.4474 17.2624 12.8561 18.0951 11.9443C18.8035 12.8567 18.8292 35.2965 18.1148 36.2759ZM9.08564 28.5075C9.08564 27.2731 8.48345 26.5955 7.23736 26.5802C5.43574 26.5551 3.63894 26.5642 1.83732 26.5802C0.729217 26.5906 0.0663616 27.1965 0.0448367 28.28C-0.0115595 30.7263 -0.0164779 33.1773 0.0399183 35.6234C0.0706251 36.7683 0.743918 37.3478 1.94826 37.3171C3.70452 37.2816 5.46083 37.2865 7.21097 37.3122C8.51837 37.3393 9.0592 36.6548 9.08068 35.4414C9.09477 34.2848 9.08068 33.1295 9.08068 31.9741C9.08078 30.8193 9.08078 29.6635 9.08564 28.5075ZM8.14131 35.4118C8.13579 35.7123 7.76294 36.0067 7.55813 36.3089C7.38578 36.017 7.05774 35.7319 7.05287 35.4424C7.0173 33.0951 7.02216 30.7421 7.05287 28.3946C7.05774 28.1198 7.28342 27.8495 7.40484 27.5797C7.53916 27.5748 7.67649 27.5748 7.8089 27.5698C7.92666 27.8808 8.14617 28.186 8.15109 28.5013C8.1812 30.804 8.19163 33.1048 8.14131 35.4118ZM6.89522 25.6945C7.20671 25.6774 7.74272 25.1181 7.74759 24.8018C7.79912 20.9777 7.77824 17.1475 7.76294 13.324C7.75802 12.4887 7.32391 12.0332 6.48128 12.0295C5.18984 12.0184 3.88369 11.9092 2.61859 12.0908C2.13722 12.1564 1.39338 12.899 1.38174 13.3491C1.28545 17.3964 1.32655 21.4437 1.32655 25.735C3.31707 25.7344 5.10951 25.7824 6.89522 25.6945ZM6.09925 14.2304C6.10412 13.8318 6.27155 13.432 6.36412 13.0389C6.54315 13.0443 6.72162 13.0499 6.90004 13.0597C6.97244 13.4326 7.1049 13.8054 7.1049 14.1844C7.1196 17.361 7.13064 20.5374 7.08895 23.714C7.08895 24.0936 6.79337 24.4658 6.6309 24.8386C6.45183 24.4818 6.12007 24.1224 6.11455 23.7668C6.07351 20.5828 6.07838 17.4069 6.09925 14.2304ZM6.37461 11.147C6.37461 8.76835 6.37461 6.4675 6.37461 4.16178C6.30221 4.16178 6.06794 4.16178 5.99685 4.16178C5.99685 5.68503 5.97111 7.20341 5.97111 8.72726C5.78712 8.73278 5.62335 8.73278 5.43941 8.7377L5.32782 0.414938C5.16836 0.221164 4.32212 0.243241 4.15775 0.456031C3.64752 1.12932 2.99997 1.9266 2.95827 2.7041C2.81603 5.48879 2.90308 8.28512 2.90308 11.1464C4.01179 11.147 5.14448 11.147 6.37461 11.147Z" fill="black"/>
</svg>
