<svg width="45" height="49" viewBox="0 0 45 49" fill="none" xmlns="http://www.w3.org/2000/svg">
<path d="M23.4142 48.099C17.7717 48.1357 12.1408 47.9321 6.64341 46.5236C5.04252 46.0969 3.50046 45.4741 2.05225 44.6694C0.326605 43.7248 -0.312577 42.1143 0.141365 40.1951C0.762198 37.5783 1.83863 35.16 3.67944 33.134C5.27825 31.3749 7.37106 30.7591 9.62741 30.5255C10.814 30.402 12.0039 30.3235 13.1939 30.2434C13.3608 30.2317 13.6127 30.2785 13.6828 30.3886C14.7576 32.0909 16.5033 32.6617 18.3024 33.0705C21.5017 33.7965 24.6926 33.7248 27.8252 32.6884C29.1052 32.2661 30.2818 31.662 31.0511 30.4704C31.1042 30.3997 31.1723 30.3418 31.2505 30.3008C31.3288 30.2598 31.4152 30.2368 31.5034 30.2334C33.1606 30.3803 34.8212 30.5038 36.4667 30.7341C39.2288 31.1213 41.2181 32.7134 42.5199 35.0849C43.327 36.5981 43.9972 38.1804 44.5225 39.8129C45.2001 41.8423 44.4691 43.6147 42.6534 44.7579C40.5723 46.068 38.2174 46.607 35.8426 47.0493C31.7371 47.8136 27.5865 48.084 23.4142 48.099Z" fill="black"/>
<path d="M22.4128 0.0196617C25.1816 -0.0888172 27.765 0.490293 29.9813 2.24097C32.7016 4.39219 33.743 7.36117 33.995 10.694C34.0234 11.0545 34.0117 11.4166 34.0167 11.7771C34.0167 12.3996 34.0418 12.9553 34.4156 13.5662C34.7728 14.1503 34.8495 15.0098 34.7894 15.7257C34.6543 17.3562 34.4373 19.0001 32.9637 20.1049C32.7968 20.2368 32.74 20.5405 32.6432 20.7725C31.6786 23.0389 30.4269 25.1116 28.6779 26.8757C24.6141 30.9612 19.5807 30.826 15.7239 26.5336C14.2277 24.8511 13.0183 22.9341 12.1441 20.8593C11.9613 20.4678 11.7136 20.11 11.4114 19.8012C10.4234 18.7448 10.098 17.4313 9.98952 16.0645C9.90608 14.9998 9.8126 13.8949 10.6804 13.0037C10.8256 12.8535 10.7605 12.4764 10.7539 12.206C10.6955 10.1866 10.9208 8.20063 11.7168 6.33813C13.3958 2.40286 16.4882 0.430211 20.6638 0.0263362C21.2446 -0.0287377 21.8321 0.0196617 22.4128 0.0196617ZM29.6409 11.2914C29.5624 11.3131 29.5324 11.3315 29.514 11.3248C29.4087 11.2897 29.3069 11.2444 29.2103 11.1896C28.5659 10.7547 27.8393 10.4564 27.0753 10.3128C26.3113 10.1693 25.5259 10.1837 24.7677 10.3552C22.4772 10.8436 20.0975 10.7064 17.8784 9.95799C16.8003 9.59917 15.8023 9.90292 14.9779 10.7224C14.0869 11.6031 13.4523 12.7096 13.1421 13.9233C13.0621 14.1259 12.9337 14.3058 12.7682 14.4473C12.5129 14.7094 12.0706 14.9063 11.9889 15.2067C11.6367 16.5068 11.9705 17.7284 12.6564 18.8583C12.7649 19.0352 12.9769 19.2588 13.1571 19.2688C13.7078 19.2989 13.7763 19.6961 13.9281 20.0782C14.7726 22.2211 15.9558 24.1403 17.6548 25.7208C20.0363 27.9354 22.81 28.4044 25.4302 26.9408C27.8852 25.5706 29.3555 23.3393 30.5337 20.871C30.8558 20.1934 30.8859 19.2772 31.8922 19.1019C32.0157 19.0819 32.1242 18.8716 32.206 18.7298C32.8094 17.7225 33.0387 16.5348 32.8535 15.3753C32.7484 14.7077 32.453 14.3155 31.7153 14.5024C31.4533 12.9086 30.7941 11.5885 29.4439 10.482L29.6409 11.2914Z" fill="black"/>
</svg>
