<svg width="52" height="52" viewBox="0 0 52 52" fill="none" xmlns="http://www.w3.org/2000/svg">
<circle cx="26" cy="26" r="26" fill="#D9D9D9"/>
<circle cx="26" cy="26" r="18" fill="#1D1D1D"/>
<g clip-path="url(#clip0_2893_846)">
<path d="M26.2778 34.0019C24.2833 34.0149 22.2929 33.9429 20.3497 33.445C19.7838 33.2942 19.2387 33.0741 18.7268 32.7896C18.1168 32.4557 17.8909 31.8864 18.0513 31.208C18.2708 30.283 18.6513 29.4282 19.302 28.7121C19.8671 28.0903 20.6069 27.8726 21.4045 27.79C21.8239 27.7464 22.2445 27.7186 22.6651 27.6903C22.7241 27.6862 22.8132 27.7027 22.838 27.7416C23.2179 28.3434 23.835 28.5451 24.4709 28.6896C25.6018 28.9463 26.7297 28.9209 27.837 28.5545C28.2895 28.4053 28.7054 28.1917 28.9773 27.7705C28.9961 27.7456 29.0202 27.7251 29.0478 27.7106C29.0755 27.6961 29.106 27.688 29.1372 27.6868C29.723 27.7387 30.31 27.7823 30.8916 27.8637C31.868 28.0006 32.5712 28.5634 33.0313 29.4017C33.3166 29.9366 33.5535 30.4959 33.7392 31.0729C33.9787 31.7903 33.7203 32.4168 33.0785 32.8209C32.3429 33.284 31.5105 33.4745 30.671 33.6309C29.2198 33.901 27.7527 33.9966 26.2778 34.0019Z" fill="white"/>
<path d="M25.9236 17.007C26.9023 16.9686 27.8155 17.1733 28.5989 17.7921C29.5605 18.5526 29.9286 19.602 30.0177 20.7801C30.0277 20.9075 30.0236 21.0355 30.0254 21.163C30.0254 21.383 30.0342 21.5795 30.1664 21.7954C30.2926 22.0018 30.3197 22.3057 30.2985 22.5587C30.2507 23.1351 30.174 23.7162 29.6531 24.1067C29.5941 24.1533 29.5741 24.2607 29.5399 24.3427C29.1989 25.1438 28.7564 25.8765 28.1382 26.5C26.7017 27.9442 24.9225 27.8964 23.5592 26.3791C23.0303 25.7844 22.6028 25.1068 22.2938 24.3733C22.2292 24.235 22.1416 24.1085 22.0348 23.9993C21.6856 23.6259 21.5706 23.1616 21.5322 22.6785C21.5027 22.3021 21.4697 21.9116 21.7764 21.5966C21.8278 21.5435 21.8048 21.4102 21.8024 21.3146C21.7818 20.6008 21.8614 19.8988 22.1428 19.2404C22.7363 17.8494 23.8294 17.1521 25.3054 17.0093C25.5107 16.9898 25.7183 17.007 25.9236 17.007ZM28.4786 20.9913C28.4509 20.999 28.4402 21.0055 28.4338 21.0031C28.3965 20.9907 28.3605 20.9747 28.3264 20.9553C28.0986 20.8016 27.8418 20.6961 27.5717 20.6454C27.3016 20.5947 27.024 20.5998 26.756 20.6604C25.9464 20.833 25.1052 20.7845 24.3208 20.52C23.9397 20.3931 23.5869 20.5005 23.2955 20.7901C22.9806 21.1015 22.7563 21.4926 22.6466 21.9216C22.6183 21.9932 22.5729 22.0568 22.5144 22.1069C22.4242 22.1995 22.2679 22.2691 22.2389 22.3753C22.1145 22.8348 22.2325 23.2666 22.4749 23.666C22.5133 23.7286 22.5882 23.8076 22.6519 23.8111C22.8466 23.8218 22.8708 23.9622 22.9244 24.0973C23.2229 24.8547 23.6412 25.5331 24.2417 26.0918C25.0836 26.8746 26.064 27.0404 26.9902 26.523C27.858 26.0387 28.3777 25.25 28.7942 24.3775C28.9081 24.138 28.9187 23.8141 29.2744 23.7522C29.318 23.7451 29.3564 23.6707 29.3853 23.6206C29.5986 23.2645 29.6796 22.8447 29.6142 22.4349C29.577 22.1989 29.4726 22.0603 29.2119 22.1263C29.1192 21.5629 28.8862 21.0963 28.409 20.7052L28.4786 20.9913Z" fill="white"/>
</g>
<defs>
<clipPath id="clip0_2893_846">
<rect width="15.8265" height="17.0034" fill="white" transform="translate(18 17)"/>
</clipPath>
</defs>
</svg>
