<svg width="22" height="20" viewBox="0 0 22 20" fill="none" xmlns="http://www.w3.org/2000/svg">
<path d="M9.12148 15.6045H2.0332" stroke="#FFFBFB" stroke-width="2.02499" stroke-linecap="round" stroke-linejoin="round"/>
<path d="M12.283 4.70044H19.3712" stroke="#FFFBFB" stroke-width="2.02499" stroke-linecap="round" stroke-linejoin="round"/>
<path fill-rule="evenodd" clip-rule="evenodd" d="M7.31705 4.63952C7.31705 3.18192 6.12662 2 4.65853 2C3.19043 2 2 3.18192 2 4.63952C2 6.09713 3.19043 7.27905 4.65853 7.27905C6.12662 7.27905 7.31705 6.09713 7.31705 4.63952Z" stroke="#FFFBFB" stroke-width="2.02499" stroke-linecap="round" stroke-linejoin="round"/>
<path fill-rule="evenodd" clip-rule="evenodd" d="M19.9999 15.5604C19.9999 14.1028 18.8104 12.9209 17.3423 12.9209C15.8733 12.9209 14.6829 14.1028 14.6829 15.5604C14.6829 17.018 15.8733 18.1999 17.3423 18.1999C18.8104 18.1999 19.9999 17.018 19.9999 15.5604Z" stroke="#FFFBFB" stroke-width="2.02499" stroke-linecap="round" stroke-linejoin="round"/>
</svg>
