<svg width="187" height="20" viewBox="0 0 187 20" fill="none" xmlns="http://www.w3.org/2000/svg">
<path d="M5.4 10.275V19H0.525V1.25H4.325L11.45 10.275V1.25H16.325V19H12.45L5.4 10.275ZM25.3029 19.25C24.1529 19.25 23.1279 19.075 22.2279 18.725C21.3279 18.3583 20.5696 17.8667 19.9529 17.25C19.3529 16.6333 18.8946 15.925 18.5779 15.125C18.2613 14.325 18.1029 13.4833 18.1029 12.6C18.1029 11.3333 18.3779 10.175 18.9279 9.125C19.4779 8.05833 20.2863 7.20833 21.3529 6.575C22.4196 5.925 23.7363 5.6 25.3029 5.6C26.8696 5.6 28.1863 5.91667 29.2529 6.55C30.3196 7.18333 31.1279 8.01667 31.6779 9.05C32.2279 10.0833 32.5029 11.2083 32.5029 12.425C32.5029 12.675 32.4863 12.9333 32.4529 13.2C32.4363 13.45 32.4113 13.675 32.3779 13.875H23.1529C23.1863 14.3417 23.3113 14.725 23.5279 15.025C23.7613 15.3083 24.0446 15.5167 24.3779 15.65C24.7279 15.7833 25.0863 15.85 25.4529 15.85C25.9696 15.85 26.4529 15.7333 26.9029 15.5C27.3696 15.2667 27.6779 14.9417 27.8279 14.525L31.8529 15.675C31.5029 16.375 31.0113 16.9917 30.3779 17.525C29.7613 18.0583 29.0279 18.4833 28.1779 18.8C27.3279 19.1 26.3696 19.25 25.3029 19.25ZM23.0529 11.025H27.4029C27.3529 10.5917 27.2279 10.225 27.0279 9.925C26.8446 9.625 26.5946 9.39167 26.2779 9.225C25.9779 9.05833 25.6279 8.975 25.2279 8.975C24.8279 8.975 24.4696 9.05833 24.1529 9.225C23.8529 9.39167 23.6029 9.625 23.4029 9.925C23.2196 10.225 23.1029 10.5917 23.0529 11.025ZM49.7723 5.85H54.2473L48.8723 19H44.9973L43.2223 14L41.4473 19H37.5723L32.1973 5.85H36.6723L39.7973 14.55L40.6723 11.6L38.2723 5.85H42.0973L43.2223 9.7L44.3473 5.85H48.1723L45.7723 11.6L46.6473 14.55L49.7723 5.85ZM59.4865 9.975C59.4865 8.89167 59.6865 7.83333 60.0865 6.8C60.5032 5.75 61.1032 4.8 61.8865 3.95C62.6699 3.1 63.6199 2.425 64.7365 1.925C65.8699 1.40833 67.1449 1.15 68.5615 1.15C70.2615 1.15 71.7449 1.50833 73.0115 2.225C74.2782 2.925 75.2199 3.85833 75.8365 5.025L72.1115 7.675C71.8949 7.09167 71.5782 6.64167 71.1615 6.325C70.7615 6.00833 70.3199 5.79167 69.8365 5.675C69.3699 5.54167 68.9115 5.475 68.4615 5.475C67.7615 5.475 67.1532 5.61667 66.6365 5.9C66.1365 6.16667 65.7199 6.525 65.3865 6.975C65.0699 7.425 64.8282 7.925 64.6615 8.475C64.5115 9.025 64.4365 9.575 64.4365 10.125C64.4365 10.7417 64.5282 11.3333 64.7115 11.9C64.8949 12.4667 65.1615 12.975 65.5115 13.425C65.8615 13.8583 66.2865 14.2 66.7865 14.45C67.3032 14.7 67.8782 14.825 68.5115 14.825C68.9615 14.825 69.4199 14.7583 69.8865 14.625C70.3532 14.475 70.7782 14.2417 71.1615 13.925C71.5449 13.6083 71.8365 13.1833 72.0365 12.65L76.0115 15.025C75.6615 15.8917 75.0782 16.6333 74.2615 17.25C73.4449 17.8667 72.5199 18.3417 71.4865 18.675C70.4532 18.9917 69.4282 19.15 68.4115 19.15C67.0949 19.15 65.8865 18.8917 64.7865 18.375C63.7032 17.8417 62.7615 17.1417 61.9615 16.275C61.1782 15.3917 60.5699 14.4083 60.1365 13.325C59.7032 12.225 59.4865 11.1083 59.4865 9.975ZM83.7746 19.25C82.6079 19.25 81.5746 19.0667 80.6746 18.7C79.7746 18.3333 79.0163 17.8333 78.3996 17.2C77.7996 16.55 77.3413 15.8167 77.0246 15C76.7246 14.1833 76.5746 13.325 76.5746 12.425C76.5746 11.525 76.7246 10.6667 77.0246 9.85C77.3413 9.01667 77.7996 8.28333 78.3996 7.65C79.0163 7.01667 79.7746 6.51667 80.6746 6.15C81.5746 5.78333 82.6079 5.6 83.7746 5.6C84.9579 5.6 85.9913 5.78333 86.8746 6.15C87.7746 6.51667 88.5246 7.01667 89.1246 7.65C89.7413 8.28333 90.1996 9.01667 90.4996 9.85C90.8163 10.6667 90.9746 11.525 90.9746 12.425C90.9746 13.325 90.8163 14.1833 90.4996 15C90.1996 15.8167 89.7413 16.55 89.1246 17.2C88.5246 17.8333 87.7746 18.3333 86.8746 18.7C85.9913 19.0667 84.9579 19.25 83.7746 19.25ZM81.4496 12.425C81.4496 13.0083 81.5496 13.5167 81.7496 13.95C81.9496 14.3667 82.2246 14.6917 82.5746 14.925C82.9246 15.1417 83.3246 15.25 83.7746 15.25C84.2246 15.25 84.6246 15.1417 84.9746 14.925C85.3246 14.6917 85.5996 14.3667 85.7996 13.95C85.9996 13.5167 86.0996 13.0083 86.0996 12.425C86.0996 11.8417 85.9996 11.3417 85.7996 10.925C85.5996 10.4917 85.3246 10.1667 84.9746 9.95C84.6246 9.71667 84.2246 9.6 83.7746 9.6C83.3246 9.6 82.9246 9.71667 82.5746 9.95C82.2246 10.1667 81.9496 10.4917 81.7496 10.925C81.5496 11.3417 81.4496 11.8417 81.4496 12.425ZM92.5561 0.75H97.3061V13.775C97.3061 14.2583 97.4061 14.6333 97.6061 14.9C97.8227 15.15 98.1311 15.275 98.5311 15.275C98.7311 15.275 98.9477 15.2417 99.1811 15.175C99.4144 15.1083 99.6311 15.0167 99.8311 14.9L100.431 18.4C99.8644 18.6667 99.2227 18.875 98.5061 19.025C97.8061 19.175 97.1394 19.25 96.5061 19.25C95.2394 19.25 94.2644 18.925 93.5811 18.275C92.8977 17.6083 92.5561 16.6667 92.5561 15.45V0.75ZM101.443 0.75H106.193V13.775C106.193 14.2583 106.293 14.6333 106.493 14.9C106.709 15.15 107.018 15.275 107.418 15.275C107.618 15.275 107.834 15.2417 108.068 15.175C108.301 15.1083 108.518 15.0167 108.718 14.9L109.318 18.4C108.751 18.6667 108.109 18.875 107.393 19.025C106.693 19.175 106.026 19.25 105.393 19.25C104.126 19.25 103.151 18.925 102.468 18.275C101.784 17.6083 101.443 16.6667 101.443 15.45V0.75ZM116.904 19.25C115.754 19.25 114.729 19.075 113.829 18.725C112.929 18.3583 112.171 17.8667 111.554 17.25C110.954 16.6333 110.496 15.925 110.179 15.125C109.863 14.325 109.704 13.4833 109.704 12.6C109.704 11.3333 109.979 10.175 110.529 9.125C111.079 8.05833 111.888 7.20833 112.954 6.575C114.021 5.925 115.338 5.6 116.904 5.6C118.471 5.6 119.788 5.91667 120.854 6.55C121.921 7.18333 122.729 8.01667 123.279 9.05C123.829 10.0833 124.104 11.2083 124.104 12.425C124.104 12.675 124.088 12.9333 124.054 13.2C124.038 13.45 124.013 13.675 123.979 13.875H114.754C114.788 14.3417 114.913 14.725 115.129 15.025C115.363 15.3083 115.646 15.5167 115.979 15.65C116.329 15.7833 116.688 15.85 117.054 15.85C117.571 15.85 118.054 15.7333 118.504 15.5C118.971 15.2667 119.279 14.9417 119.429 14.525L123.454 15.675C123.104 16.375 122.613 16.9917 121.979 17.525C121.363 18.0583 120.629 18.4833 119.779 18.8C118.929 19.1 117.971 19.25 116.904 19.25ZM114.654 11.025H119.004C118.954 10.5917 118.829 10.225 118.629 9.925C118.446 9.625 118.196 9.39167 117.879 9.225C117.579 9.05833 117.229 8.975 116.829 8.975C116.429 8.975 116.071 9.05833 115.754 9.225C115.454 9.39167 115.204 9.625 115.004 9.925C114.821 10.225 114.704 10.5917 114.654 11.025ZM132.164 19.25C130.997 19.25 129.964 19.0667 129.064 18.7C128.181 18.3333 127.431 17.8333 126.814 17.2C126.197 16.55 125.731 15.8167 125.414 15C125.097 14.1833 124.939 13.325 124.939 12.425C124.939 11.225 125.214 10.1083 125.764 9.075C126.331 8.025 127.147 7.18333 128.214 6.55C129.297 5.91667 130.614 5.6 132.164 5.6C133.747 5.6 135.081 5.93333 136.164 6.6C137.247 7.26667 138.056 8.125 138.589 9.175L133.964 10.575C133.747 10.2583 133.481 10.0167 133.164 9.85C132.864 9.68333 132.522 9.6 132.139 9.6C131.706 9.6 131.314 9.71667 130.964 9.95C130.614 10.1667 130.331 10.4833 130.114 10.9C129.914 11.3167 129.814 11.825 129.814 12.425C129.814 13.0083 129.914 13.5167 130.114 13.95C130.331 14.3667 130.614 14.6917 130.964 14.925C131.314 15.1417 131.706 15.25 132.139 15.25C132.406 15.25 132.647 15.2167 132.864 15.15C133.081 15.0667 133.281 14.95 133.464 14.8C133.664 14.65 133.831 14.475 133.964 14.275L138.589 15.675C138.239 16.375 137.756 16.9917 137.139 17.525C136.539 18.0583 135.822 18.4833 134.989 18.8C134.172 19.1 133.231 19.25 132.164 19.25ZM149.318 18.275C148.884 18.4583 148.418 18.6333 147.918 18.8C147.434 18.95 146.934 19.0667 146.418 19.15C145.918 19.2333 145.426 19.275 144.943 19.275C144.226 19.275 143.568 19.1583 142.968 18.925C142.368 18.675 141.884 18.275 141.518 17.725C141.168 17.1583 140.993 16.4 140.993 15.45V9.425H139.368V5.85H140.993V1.725H145.743V5.85H148.318V9.425H145.743V13.775C145.743 14.2083 145.834 14.5167 146.018 14.7C146.201 14.8667 146.451 14.95 146.768 14.95C147.001 14.95 147.268 14.9083 147.568 14.825C147.868 14.7417 148.168 14.6417 148.468 14.525L149.318 18.275ZM150.664 19V5.85H155.414V19H150.664ZM150.664 4.75V0.75H155.414V4.75H150.664ZM164.292 19.25C163.126 19.25 162.092 19.0667 161.192 18.7C160.292 18.3333 159.534 17.8333 158.917 17.2C158.317 16.55 157.859 15.8167 157.542 15C157.242 14.1833 157.092 13.325 157.092 12.425C157.092 11.525 157.242 10.6667 157.542 9.85C157.859 9.01667 158.317 8.28333 158.917 7.65C159.534 7.01667 160.292 6.51667 161.192 6.15C162.092 5.78333 163.126 5.6 164.292 5.6C165.476 5.6 166.509 5.78333 167.392 6.15C168.292 6.51667 169.042 7.01667 169.642 7.65C170.259 8.28333 170.717 9.01667 171.017 9.85C171.334 10.6667 171.492 11.525 171.492 12.425C171.492 13.325 171.334 14.1833 171.017 15C170.717 15.8167 170.259 16.55 169.642 17.2C169.042 17.8333 168.292 18.3333 167.392 18.7C166.509 19.0667 165.476 19.25 164.292 19.25ZM161.967 12.425C161.967 13.0083 162.067 13.5167 162.267 13.95C162.467 14.3667 162.742 14.6917 163.092 14.925C163.442 15.1417 163.842 15.25 164.292 15.25C164.742 15.25 165.142 15.1417 165.492 14.925C165.842 14.6917 166.117 14.3667 166.317 13.95C166.517 13.5167 166.617 13.0083 166.617 12.425C166.617 11.8417 166.517 11.3417 166.317 10.925C166.117 10.4917 165.842 10.1667 165.492 9.95C165.142 9.71667 164.742 9.6 164.292 9.6C163.842 9.6 163.442 9.71667 163.092 9.95C162.742 10.1667 162.467 10.4917 162.267 10.925C162.067 11.3417 161.967 11.8417 161.967 12.425ZM186.399 19H181.649V11.6C181.649 10.95 181.499 10.4833 181.199 10.2C180.915 9.9 180.582 9.75 180.199 9.75C179.932 9.75 179.649 9.83333 179.349 10C179.049 10.15 178.774 10.3667 178.524 10.65C178.274 10.9333 178.074 11.2583 177.924 11.625V19H173.174V5.85H177.449V7.8C177.765 7.31667 178.165 6.91667 178.649 6.6C179.132 6.26667 179.69 6.01667 180.324 5.85C180.957 5.68333 181.649 5.6 182.399 5.6C183.299 5.6 184.015 5.75833 184.549 6.075C185.082 6.39167 185.482 6.8 185.749 7.3C186.015 7.8 186.19 8.325 186.274 8.875C186.357 9.40833 186.399 9.9 186.399 10.35V19Z" fill="black"/>
</svg>
