<svg width="21" height="20" viewBox="0 0 21 20" fill="none" xmlns="http://www.w3.org/2000/svg">
<path fill-rule="evenodd" clip-rule="evenodd" d="M12.9211 9.23312H15.6889C16.1086 9.23312 16.4384 8.88615 16.4384 8.46774C16.4384 8.03912 16.1086 7.70236 15.6889 7.70236H12.9211C12.5014 7.70236 12.1717 8.03912 12.1717 8.46774C12.1717 8.88615 12.5014 9.23312 12.9211 9.23312ZM18.9764 3.92749C19.5859 3.92749 19.9856 4.1418 20.3853 4.61123C20.785 5.08067 20.8549 5.7542 20.765 6.36549L19.8157 13.06C19.6359 14.3469 18.5567 15.2949 17.2877 15.2949H6.38619C5.05723 15.2949 3.95809 14.255 3.84817 12.908L2.92889 1.7834L1.42006 1.51807C1.02037 1.44664 0.740593 1.04864 0.810538 0.640433C0.880484 0.223045 1.27018 -0.0535127 1.67986 0.0087383L4.063 0.375101C4.40274 0.437352 4.65254 0.722074 4.68252 1.06905L4.87237 3.35499C4.90235 3.68257 5.16215 3.92749 5.4819 3.92749H18.9764ZM6.22612 16.9079C5.38677 16.9079 4.7073 17.6018 4.7073 18.459C4.7073 19.3061 5.38677 20 6.22612 20C7.05547 20 7.73494 19.3061 7.73494 18.459C7.73494 17.6018 7.05547 16.9079 6.22612 16.9079ZM17.4674 16.9079C16.628 16.9079 15.9485 17.6018 15.9485 18.459C15.9485 19.3061 16.628 20 17.4674 20C18.2967 20 18.9762 19.3061 18.9762 18.459C18.9762 17.6018 18.2967 16.9079 17.4674 16.9079Z" fill="#212121"/>
</svg>
