<svg width="8" height="7" viewBox="0 0 8 7" fill="none" xmlns="http://www.w3.org/2000/svg">
<path d="M7.5 3.5C7.5 3.22386 7.27614 3 7 3H5.2C4.8134 3 4.5 2.6866 4.5 2.3V0.5C4.5 0.223858 4.27614 0 4 0C3.72386 0 3.5 0.223858 3.5 0.5V2.3C3.5 2.6866 3.1866 3 2.8 3H1C0.723858 3 0.5 3.22386 0.5 3.5C0.5 3.77614 0.723858 4 1 4H2.8C3.1866 4 3.5 4.3134 3.5 4.7V6.5C3.5 6.77614 3.72386 7 4 7C4.27614 7 4.5 6.77614 4.5 6.5V4.7C4.5 4.3134 4.8134 4 5.2 4H7C7.27614 4 7.5 3.77614 7.5 3.5Z" fill="#101010"/>
</svg>
