<svg width="16" height="16" viewBox="0 0 16 16" fill="none" xmlns="http://www.w3.org/2000/svg">
<path opacity="0.4" d="M8.48632 1.12674L10.1952 4.56094C10.3211 4.80975 10.5614 4.98254 10.8386 5.02093L14.6771 5.57999C14.9013 5.61147 15.1047 5.72974 15.2422 5.9102C15.378 6.08836 15.4364 6.31413 15.4034 6.53607C15.3765 6.72037 15.2898 6.89085 15.1569 7.0214L12.3755 9.71762C12.1721 9.90576 12.08 10.1845 12.1291 10.4571L12.8139 14.2477C12.8868 14.7054 12.5836 15.1369 12.1291 15.2237C11.9418 15.2537 11.7498 15.2222 11.581 15.1362L8.15697 13.3523C7.90286 13.224 7.60268 13.224 7.34857 13.3523L3.92459 15.1362C3.50389 15.3596 2.98261 15.2076 2.74846 14.7929C2.66171 14.6278 2.631 14.4396 2.65941 14.2561L3.3442 10.4648C3.39334 10.193 3.30044 9.91267 3.09777 9.72453L0.316361 7.02985C-0.0145216 6.71039 -0.0245018 6.18435 0.294097 5.85337C0.301007 5.84646 0.308684 5.83878 0.316361 5.8311C0.448407 5.69671 0.621909 5.61147 0.80923 5.5892L4.64777 5.02938C4.92415 4.99021 5.16444 4.81897 5.29111 4.56862L6.93862 1.12674C7.08525 0.831851 7.38926 0.648314 7.71938 0.655994H7.82225C8.1086 0.690551 8.35811 0.867944 8.48632 1.12674Z" fill="#101010"/>
<path d="M7.73083 13.2566C7.58216 13.2612 7.43731 13.3012 7.30703 13.3726L3.8998 15.1525C3.4829 15.3514 2.984 15.197 2.75026 14.7983C2.66366 14.6355 2.63224 14.4488 2.66136 14.266L3.34189 10.4827C3.38787 10.2077 3.2959 9.92812 3.09588 9.73454L0.31323 7.04056C-0.0170716 6.71716 -0.0232025 6.18635 0.300202 5.85527C0.3048 5.85066 0.308631 5.84682 0.31323 5.84297C0.445044 5.71239 0.615176 5.62635 0.798336 5.59946L4.6401 5.03409C4.91829 4.99875 5.15969 4.82514 5.28231 4.57318L6.95221 1.08798C7.11085 0.806828 7.41509 0.639366 7.73696 0.657034C7.73083 0.885182 7.73083 13.1014 7.73083 13.2566Z" fill="#101010"/>
</svg>
