<svg width="33" height="26" viewBox="0 0 33 26" fill="none" xmlns="http://www.w3.org/2000/svg">
<path d="M27.5628 22.9215C25.8655 23.5771 24.1305 24.2909 22.3653 24.916C20.5204 25.5694 18.6136 25.997 16.6484 26C14.5083 26 12.442 25.5038 10.4282 24.8079C8.14714 24.0167 5.9687 23.0079 3.99393 21.5886C3.95861 21.5725 3.92177 21.56 3.88397 21.5513C3.61388 22.0214 3.23384 22.3888 2.70325 22.572C2.27862 22.7166 1.81874 22.7167 1.3941 22.5721C0.969451 22.4276 0.60346 22.1464 0.352221 21.7718C0.100983 21.3971 -0.021639 20.9497 0.00313398 20.4979C0.027907 20.0462 0.198714 19.6151 0.489381 19.2707C0.773881 18.9239 1.16732 18.6857 1.60439 18.5957C2.04145 18.5057 2.49586 18.5693 2.89217 18.776C3.63012 19.1642 4.33633 19.6157 5.05658 20.0381C5.22483 20.1365 5.3953 20.2311 5.61078 20.354C6.83136 18.2128 7.71618 15.9769 8.02539 13.545C8.30064 11.3799 8.13313 9.25579 7.17526 7.21809C6.80628 7.87075 6.45871 8.48467 6.10744 9.10082C6.02396 9.25245 5.92949 9.39763 5.8248 9.53518C5.4942 9.9539 5.3134 10.3547 5.42114 10.9567C5.5953 11.9253 5.12596 12.4692 4.21975 12.5958C3.49286 12.6979 2.67521 12.081 2.59994 11.2451C2.52614 10.4382 2.58961 9.61714 2.61543 8.80355C2.63462 8.19857 2.68922 7.59434 2.73423 6.90815C2.21767 7.17934 1.70848 7.33133 1.25832 6.95955C1.01683 6.75562 0.832602 6.49126 0.724046 6.1929C0.4879 5.5164 0.86647 4.94122 1.71881 4.57242C0.971259 3.81918 0.852448 3.15087 1.34983 2.48629C1.85607 1.80978 2.70767 1.69355 3.49581 2.1525C3.52238 1.81798 3.45596 1.40746 3.60576 1.11391C3.75557 0.820358 4.0847 0.540966 4.39833 0.412073C5.14292 0.106603 5.80045 0.403131 6.32292 1.20406C6.54431 0.483596 6.98707 0.0231566 7.7324 0.000805191C8.47774 -0.0215463 8.92642 0.423248 9.1943 1.11018C9.75293 0.792047 10.2916 0.778636 10.7824 1.19139C11.2561 1.58999 11.2812 2.12121 11.1351 2.73141C11.7056 2.50417 12.2206 2.55707 12.6398 2.97802C13.059 3.39897 13.1114 3.9287 12.8693 4.5374C13.6619 4.26472 14.3194 4.38094 14.7511 5.07235C15.1562 5.72128 15.0146 6.35085 14.5091 6.92752C15.326 7.33357 15.5614 7.97059 15.2736 8.74991C16.1089 8.74991 16.9406 8.75512 17.773 8.74991C19.4172 8.73724 21.0687 8.69626 22.6575 9.21556C23.2641 9.41449 23.8324 9.73709 24.4353 10.0083C24.4619 9.76764 24.4744 9.48676 24.5268 9.21556C24.8736 7.43564 25.8197 6.64663 27.6107 6.73678C28.2818 6.76321 28.9449 6.89388 29.5766 7.12421C30.8555 7.61371 31.468 8.70595 31.5912 10.0016C31.7388 11.514 31.7204 13.0421 31.7661 14.5635C31.7853 15.1901 31.9255 15.772 32.3683 16.2317C32.5498 16.4194 32.7838 16.555 33 16.7189C31.7602 17.1607 30.3183 16.6571 29.4519 15.5015C28.7877 14.6119 28.5516 13.5756 28.3745 12.5035C28.269 11.9098 28.1112 11.3268 27.9029 10.7615C27.7664 10.3763 27.4417 10.1208 27.0344 10.0232C26.613 9.92187 26.2042 9.96806 25.9503 10.36C25.6965 10.7518 25.4817 11.1467 25.7378 11.6616C26.3208 12.8357 26.2278 14.0591 25.9046 15.2855C25.8477 15.5 25.7835 15.7131 25.7289 15.9292C25.6551 16.2339 25.7289 16.491 25.8411 16.7979C26.1112 17.5184 26.2839 18.2806 26.4425 19.0375C26.5658 19.6283 26.6034 20.2378 26.6846 20.8383C26.7018 20.9233 26.7265 21.0066 26.7584 21.0872C27.5753 20.8346 28.362 20.5611 29.1641 20.351C29.6195 20.228 30.1034 20.2709 30.5306 20.4721C30.9579 20.6733 31.3012 21.0201 31.5005 21.4515C31.8997 22.2897 31.6813 23.3454 30.9898 23.9183C30.2349 24.5427 29.0431 24.6038 28.3332 23.9779C28.0048 23.6918 27.8041 23.2634 27.5628 22.9215ZM8.60763 21.6757C8.65686 21.7066 8.70815 21.734 8.76113 21.7577C11.248 22.6518 13.8043 23.1949 16.4469 23.256C18.7412 23.3089 20.992 22.9766 23.1985 22.3403C23.9401 22.1265 23.9446 22.1228 23.7372 21.3531C23.2797 19.6176 22.3061 18.0654 20.9477 16.9059C20.0422 16.1229 18.9966 15.5611 17.7959 15.4285C17.0051 15.3479 16.2092 15.3332 15.416 15.3846C14.1122 15.4474 12.846 15.8454 11.7373 16.5409C9.86214 17.7203 8.98546 19.5255 8.60763 21.6757Z" fill="black"/>
</svg>
