<svg width="56" height="56" viewBox="0 0 56 56" fill="none" xmlns="http://www.w3.org/2000/svg">
<rect width="56" height="56" rx="28" fill="#101010" fill-opacity="0.12"/>
<rect x="8" y="8" width="40" height="40" rx="20" fill="url(#paint0_linear_2893_892)"/>
<path d="M26 26C26 25.8022 25.9414 25.6089 25.8315 25.4444C25.7216 25.28 25.5654 25.1518 25.3827 25.0761C25.2 25.0004 24.9989 24.9806 24.8049 25.0192C24.6109 25.0578 24.4328 25.153 24.2929 25.2929C24.153 25.4327 24.0578 25.6109 24.0192 25.8049C23.9806 25.9989 24.0004 26.2 24.0761 26.3827C24.1518 26.5654 24.28 26.7216 24.4444 26.8315C24.6089 26.9414 24.8022 27 25 27C25.2652 27 25.5196 26.8946 25.7071 26.7071C25.8946 26.5196 26 26.2652 26 26ZM30.5 30.06C30.3865 29.9935 30.2609 29.95 30.1305 29.9321C30.0002 29.9142 29.8675 29.9222 29.7403 29.9556C29.613 29.9891 29.4936 30.0473 29.3889 30.127C29.2841 30.2067 29.1962 30.3062 29.13 30.42C29.0165 30.6196 28.8521 30.7856 28.6536 30.901C28.4551 31.0165 28.2296 31.0773 28 31.0773C27.7704 31.0773 27.5449 31.0165 27.3464 30.901C27.1479 30.7856 26.9835 30.6196 26.87 30.42C26.8038 30.3062 26.7159 30.2067 26.6112 30.127C26.5064 30.0473 26.387 29.9891 26.2597 29.9556C26.1325 29.9222 25.9998 29.9142 25.8695 29.9321C25.7391 29.95 25.6135 29.9935 25.5 30.06C25.2713 30.1919 25.104 30.4089 25.0347 30.6637C24.9654 30.9185 24.9996 31.1904 25.13 31.42C25.42 31.9248 25.8381 32.3442 26.342 32.6358C26.8459 32.9274 27.4178 33.081 28 33.081C28.5822 33.081 29.1541 32.9274 29.658 32.6358C30.1619 32.3442 30.58 31.9248 30.87 31.42C31.0004 31.1904 31.0346 30.9185 30.9653 30.6637C30.896 30.4089 30.7287 30.1919 30.5 30.06ZM31 25C30.8022 25 30.6089 25.0586 30.4444 25.1685C30.28 25.2784 30.1518 25.4346 30.0761 25.6173C30.0004 25.8 29.9806 26.0011 30.0192 26.1951C30.0578 26.3891 30.153 26.5673 30.2929 26.7071C30.4328 26.847 30.6109 26.9422 30.8049 26.9808C30.9989 27.0194 31.2 26.9996 31.3827 26.9239C31.5654 26.8482 31.7216 26.72 31.8315 26.5556C31.9414 26.3911 32 26.1978 32 26C32 25.8687 31.9741 25.7386 31.9239 25.6173C31.8736 25.496 31.8 25.3858 31.7071 25.2929C31.6143 25.2 31.504 25.1264 31.3827 25.0761C31.2614 25.0259 31.1313 25 31 25ZM28 18C26.0222 18 24.0888 18.5865 22.4443 19.6853C20.7998 20.7841 19.5181 22.3459 18.7612 24.1732C18.0043 26.0004 17.8063 28.0111 18.1922 29.9509C18.578 31.8907 19.5304 33.6725 20.9289 35.0711C22.3275 36.4696 24.1093 37.422 26.0491 37.8079C27.9889 38.1937 29.9996 37.9957 31.8268 37.2388C33.6541 36.4819 35.2159 35.2002 36.3147 33.5557C37.4135 31.9112 38 29.9778 38 28C38 25.3478 36.9464 22.8043 35.0711 20.9289C33.1957 19.0536 30.6522 18 28 18ZM28 36C26.1373 36.008 24.3302 35.3658 22.8903 34.1842C21.4504 33.0025 20.468 31.3554 20.1125 29.5269C19.757 27.6984 20.0507 25.8032 20.9429 24.1681C21.8352 22.533 23.27 21.2605 25 20.57C24.9897 20.7131 24.9897 20.8569 25 21C25 21.7956 25.3161 22.5587 25.8787 23.1213C26.4413 23.6839 27.2044 24 28 24C28.2652 24 28.5195 23.8946 28.707 23.7071C28.8945 23.5195 28.9999 23.2652 28.9999 23C28.9999 22.7348 28.8945 22.4805 28.707 22.2929C28.5195 22.1054 28.2652 22 28 22C27.7348 22 27.4805 21.8946 27.293 21.7071C27.1055 21.5195 27.0002 21.2652 27.0002 21C27.0002 20.7348 27.1055 20.4805 27.293 20.2929C27.4805 20.1054 27.7348 20 28 20C30.1217 20 32.1566 20.8429 33.6569 22.3431C35.1572 23.8434 36 25.8783 36 28C36 30.1217 35.1572 32.1566 33.6569 33.6569C32.1566 35.1571 30.1217 36 28 36Z" fill="white"/>
<defs>
<linearGradient id="paint0_linear_2893_892" x1="48" y1="48" x2="0.403591" y2="34.1999" gradientUnits="userSpaceOnUse">
<stop stop-color="#101010"/>
<stop offset="1" stop-color="#313130"/>
</linearGradient>
</defs>
</svg>
